{
DisplayStrings = (
mover,
messy
);
date = "2016-11-08 10:02:54 +0000";
familyName = "Mell Sans ";
featurePrefixes = (
{
automatic = 1;
code = "languagesystem DFLT dflt;\012languagesystem cyrl dflt;\012languagesystem latn dflt;\012languagesystem latn CAT;\012languagesystem latn ROM;\012languagesystem latn MOL;\012languagesystem latn TRK;\012";
name = Languagesystems;
}
);
features = (
{
automatic = 1;
code = "feature locl;\012feature frac;\012";
name = aalt;
},
{
automatic = 1;
code = "script latn;\012language CAT;\012sub  l' periodcentered' l by ldot;\012sub  L' periodcentered' L by Ldot;\012language ROM;\012sub Scedilla by Scommaaccent;\012sub scedilla by scommaaccent;\012sub Tcedilla by Tcommaaccent;\012sub tcedilla by tcommaaccent;\012language MOL;\012sub Scedilla by Scommaaccent;\012sub scedilla by scommaaccent;\012sub Tcedilla by Tcommaaccent;\012sub tcedilla by tcommaaccent;\012language KAZ;\012sub i by idotaccent;\012language TAT;\012sub i by idotaccent;\012language TRK;\012sub i by idotaccent;\012language CRT;\012sub i by idotaccent;\012language AZE;\012sub i by idotaccent;\012";
name = locl;
},
{
automatic = 1;
code = "lookup FRAC {\012\011sub slash by fraction;\012} FRAC;\012lookup UP {\012\011sub [zero one two three four five six seven eight nine] by [zero.numr one.numr two.numr three.numr four.numr five.numr six.numr seven.numr eight.numr nine.numr];\012} UP;\012lookup DOWN {\012\011sub fraction [zero.numr one.numr two.numr three.numr four.numr five.numr six.numr seven.numr eight.numr nine.numr]' by [zero.dnom one.dnom two.dnom three.dnom four.dnom five.dnom six.dnom seven.dnom eight.dnom nine.dnom];\012\011sub [zero.dnom one.dnom two.dnom three.dnom four.dnom five.dnom six.dnom seven.dnom eight.dnom nine.dnom] [zero.numr one.numr two.numr three.numr four.numr five.numr six.numr seven.numr eight.numr nine.numr]' by [zero.dnom one.dnom two.dnom three.dnom four.dnom five.dnom six.dnom seven.dnom eight.dnom nine.dnom];\012} DOWN;\012";
name = frac;
}
);

glyphs = (
{
glyphname = B;
lastChange = "2020-01-18 18:52:38 +0000";
layers = (
{
background = {
paths = (
{
closed = 1;
nodes = (
"300 356 OFFCURVE",
"243 353 OFFCURVE",
"323 362 CURVE",
"377 379 OFFCURVE",
"413 421 OFFCURVE",
"413 508 CURVE SMOOTH",
"413 638 OFFCURVE",
"359 703 OFFCURVE",
"221 701 CURVE SMOOTH",
"151 700 LINE",
"151 700 OFFCURVE",
"148 356 OFFCURVE",
"148 356 CURVE SMOOTH"
);
},
{
closed = 1;
nodes = (
"202 619 LINE SMOOTH",
"290 619 OFFCURVE",
"326 586 OFFCURVE",
"326 513 CURVE SMOOTH",
"326 439 OFFCURVE",
"311 396 OFFCURVE",
"226 396 CURVE SMOOTH",
"131 396 LINE",
"131 619 LINE"
);
}
);
};
components = (
{
name = _I_small;
transform = "{1, 0, 0, 1, 40, 27}";
},
{
name = _I_small;
transform = "{1, 0, 0, 1, 40, 165}";
},
{
name = _I_small;
transform = "{1, 0, 0, 1, 40, 328}";
},
{
name = _I_small;
transform = "{1, 0, 0, 1, 40, 474}";
},
{
name = _curve_B;
transform = "{1, 0, 0, -1, 88, 708}";
},
{
name = _curve_B;
transform = "{1, 0, 0, 1, 48, -4}";
}
);
layerId = "7EBE3D46-E53E-419E-A3EC-596DA2EA1E0D";
name = Regular;
paths = (
{
closed = 1;
nodes = (
"47 -20.9598 LINE",
"47 32.9478 LINE",
"185.678 52.759 LINE",
"123.498 -28.0758 LINE"
);
}
);
width = 600;
}
);
unicode = 0042;
},
{
glyphname = G;
lastChange = "2020-01-18 18:52:38 +0000";
layers = (
{
components = (
{
name = _C_curve;
transform = "{1, 0, 0, 1, 49, 24}";
},
{
name = "_dash-small";
transform = "{1, 0, 0, 1, 209, 50}";
},
{
name = _I_small;
transform = "{1, 0, 0, 1, 408, 107}";
},
{
name = "_dash-small";
transform = "{1, 0, 0, 1, 159, 50}";
},
{
name = _C_lowe;
transform = "{1, 0, 0, 1, 20, 18}";
}
);
layerId = "7EBE3D46-E53E-419E-A3EC-596DA2EA1E0D";
name = Regular;
paths = (
{
closed = 1;
nodes = (
"387.264 97.7721 LINE",
"395.506 65.9817 OFFCURVE",
"501.708 71.2347 OFFCURVE",
"517.737 87.2635 CURVE",
"496.637 66.1638 LINE",
"364.505 69.0053 LINE"
);
}
);
width = 611;
}
);
leftKerningGroup = O;
rightKerningGroup = O;
unicode = 0047;
},
{
glyphname = K;
lastChange = "2020-01-18 18:52:38 +0000";
layers = (
{
components = (
{
name = _I;
transform = "{1, 0, 0, 1, 30, 0}";
}
);
layerId = "7EBE3D46-E53E-419E-A3EC-596DA2EA1E0D";
name = Regular;
paths = (
{
closed = 1;
nodes = (
"501.329 677 LINE",
"404.24 677 LINE",
"173.24 334 LINE",
"214.527 334 LINE",
"187.985 360.541 LINE",
"196.215 377 LINE",
"173.417 377 LINE",
"404.417 25 LINE",
"502.024 25 LINE",
"281.234 356.185 LINE"
);
}
);
width = 555;
}
);
unicode = 004B;
},
{
glyphname = Q;
lastChange = "2020-01-18 18:52:38 +0000";
layers = (
{
components = (
{
name = O;
transform = "{1, 0, 0, 1, 0, 0}";
}
);
layerId = "7EBE3D46-E53E-419E-A3EC-596DA2EA1E0D";
name = Regular;
paths = (
{
closed = 1;
nodes = (
"480.231 -28.128 LINE",
"535.755 21.9043 LINE",
"347.89 236.363 LINE",
"309.421 197.894 LINE"
);
}
);
width = 676;
}
);
unicode = 0051;
},
{
glyphname = R;
lastChange = "2020-01-18 18:52:38 +0000";
layers = (
{
components = (
{
name = _I_small;
transform = "{1, 0, 0, 1, 40, 503}";
},
{
name = _I_small;
transform = "{1, 0, 0, 1, 40, 19}";
},
{
name = _I_small;
transform = "{1, 0, 0, 1, 40, 164}";
},
{
name = _I_small;
transform = "{1, 0, 0, 1, 40, 327}";
},
{
name = _I_small;
transform = "{1, 0, 0, 1, 40, 473}";
},
{
name = _curve_B;
transform = "{1, 0, 0, 1, 48, -18}";
}
);
layerId = "7EBE3D46-E53E-419E-A3EC-596DA2EA1E0D";
name = Regular;
paths = (
{
closed = 1;
nodes = (
"219.386 289.269 LINE",
"418.545 22 LINE",
"490.451 22 LINE",
"282.316 294.11 LINE"
);
}
);
width = 557;
}
);
unicode = 0052;
},
{
glyphname = S;
lastChange = "2020-01-18 18:52:38 +0000";
layers = (
{
layerId = "7EBE3D46-E53E-419E-A3EC-596DA2EA1E0D";
name = Regular;
paths = (
{
closed = 1;
nodes = (
"320.976 371.09 OFFCURVE",
"273.398 384.967 OFFCURVE",
"260.236 389.017 CURVE",
"187.877 412.087 OFFCURVE",
"129 451.765 OFFCURVE",
"129 512 CURVE",
"129 584.776 OFFCURVE",
"204.715 614 OFFCURVE",
"276 614 CURVE",
"331 614 OFFCURVE",
"390.039 595.256 OFFCURVE",
"437.21 573.842 CURVE",
"446.283 645.821 LINE",
"399.24 671.604 OFFCURVE",
"344.05 683 OFFCURVE",
"274 683 CURVE",
"274 706 LINE",
"274 706 LINE",
"274 683 LINE",
"147.339 683 OFFCURVE",
"61 610.244 OFFCURVE",
"61 525 CURVE",
"61 424.265 OFFCURVE",
"102.257 371.468 OFFCURVE",
"198.78 341.345 CURVE",
"197.666 340.837 OFFCURVE",
"293.692 307.5 OFFCURVE",
"310.069 300.161 CURVE",
"371.727 277.848 OFFCURVE",
"419 253.736 OFFCURVE",
"419 184 CURVE",
"419 114.834 OFFCURVE",
"339.721 82 OFFCURVE",
"272 82 CURVE",
"223.439 82 OFFCURVE",
"145.03 92.0834 OFFCURVE",
"87.1163 130.548 CURVE",
"58.379 72.4874 LINE",
"106.717 32.5909 OFFCURVE",
"173.174 13 OFFCURVE",
"268 13 CURVE",
"411.467 13 OFFCURVE",
"487 78.5506 OFFCURVE",
"487 184 CURVE",
"487 266.715 OFFCURVE",
"442.574 330.231 OFFCURVE",
"340.727 364.18 CURVE"
);
}
);
width = 540;
}
);
unicode = 0053;
},
{
glyphname = Y;
lastChange = "2020-01-18 18:52:38 +0000";
layers = (
{
layerId = "7EBE3D46-E53E-419E-A3EC-596DA2EA1E0D";
name = Regular;
paths = (
{
closed = 1;
nodes = (
"589.163 677 LINE",
"500.992 677 LINE",
"311.113 361.974 LINE",
"137.417 677 LINE",
"50.1548 677 LINE",
"277 290.248 LINE",
"277 23 LINE",
"344 23 LINE",
"344 290.682 LINE"
);
}
);
width = 641;
}
);
leftKerningGroup = T;
rightKerningGroup = T;
unicode = 0059;
},
{
glyphname = a;
lastChange = "2020-01-18 18:52:38 +0000";
layers = (
{
layerId = "7EBE3D46-E53E-419E-A3EC-596DA2EA1E0D";
name = Regular;
paths = (
{
closed = 1;
nodes = (
"181.46 487 OFFCURVE",
"133.181 473.723 OFFCURVE",
"93.9948 453.633 CURVE",
"107.823 403.504 LINE",
"140.66 407.548 OFFCURVE",
"184.04 411 OFFCURVE",
"225 411 CURVE",
"294.74 411 OFFCURVE",
"368.114 366.402 OFFCURVE",
"353.022 269.374 CURVE",
"279.612 280.172 OFFCURVE",
"308.527 282 OFFCURVE",
"259 282 CURVE",
"185.311 281.002 LINE",
"113.525 280.167 OFFCURVE",
"64.7165 225.126 OFFCURVE",
"62.9942 148.483 CURVE",
"61.3083 65.0302 OFFCURVE",
"127.923 12 OFFCURVE",
"202 12 CURVE",
"279.985 12 OFFCURVE",
"323.412 65.9605 OFFCURVE",
"352.63 124.121 CURVE",
"369.484 23 LINE",
"410 23 LINE",
"410 284 LINE",
"410 408.266 OFFCURVE",
"339.664 487 OFFCURVE",
"247 487 CURVE"
);
},
{
closed = 1;
nodes = (
"183.565 90 OFFCURVE",
"128.367 106.866 OFFCURVE",
"127.005 169.5 CURVE",
"125.496 219.295 OFFCURVE",
"191.864 241.888 OFFCURVE",
"229.324 242.99 CURVE",
"273.477 243.994 LINE",
"310.549 245.423 OFFCURVE",
"340.483 233.211 OFFCURVE",
"361 222.359 CURVE",
"361 151.62 LINE",
"344.457 117.418 OFFCURVE",
"266.518 90 OFFCURVE",
"230 90 CURVE"
);
}
);
width = 497;
}
);
leftKerningGroup = e;
rightKerningGroup = e;
unicode = 0061;
},
{
glyphname = d;
lastChange = "2020-01-18 18:52:38 +0000";
layers = (
{
components = (
{
name = _I_small;
transform = "{1, 0, 0, 1, 328, 98}";
},
{
name = _I_small;
transform = "{1, 0, 0, 1, 328, 426}";
},
{
name = _I_small;
transform = "{1, 0, 0, 1, 328, 563}";
},
{
name = _I_small;
transform = "{1, 0, 0, 1, 328, 533}";
},
{
name = _I_small;
transform = "{1, 0, 0, 1, 328, 165}";
},
{
name = _I_small;
transform = "{1, 0, 0, 1, 328, 328}";
},
{
name = _I_small;
transform = "{1, 0, 0, 1, 328, 474}";
},
{
name = _curve_b;
transform = "{-1, 0, 0, -1, 499, 500}";
}
);
layerId = "7EBE3D46-E53E-419E-A3EC-596DA2EA1E0D";
name = Regular;
paths = (
{
closed = 1;
nodes = (
"381 428 LINE",
"381 267 LINE",
"448 267 LINE",
"448 428 LINE"
);
},
{
closed = 1;
nodes = (
"381 185 LINE",
"381 24 LINE",
"448 24 LINE",
"448 185 LINE"
);
}
);
width = 531;
}
);
leftKerningGroup = e;
rightKerningGroup = h;
unicode = 0064;
},
{
glyphname = eth;
lastChange = "2020-01-18 18:52:38 +0000";
layers = (
{
components = (
{
name = six;
transform = "{-1, 0, 0, 1, 558, 0}";
}
);
layerId = "7EBE3D46-E53E-419E-A3EC-596DA2EA1E0D";
name = Regular;
paths = (
{
closed = 1;
nodes = (
"438.557 723.94 LINE",
"357.217 739.242 LINE",
"157.791 516.468 LINE",
"247.205 504.275 LINE"
);
}
);
width = 558;
}
);
unicode = 00F0;
},
{
glyphname = e;
lastChange = "2020-01-18 18:55:28 +0000";
layers = (
{
components = (
{
name = _o_curve;
transform = "{1, 0, 0, 1, 6, 0}";
},
{
name = _curve_cursive;
transform = "{1, 0, 0, 1, -9, -3}";
}
);
layerId = "7EBE3D46-E53E-419E-A3EC-596DA2EA1E0D";
name = Regular;
paths = (
{
closed = 1;
nodes = (
"228 485 OFFCURVE",
"237 409 OFFCURVE",
"259 409 CURVE",
"320 409 OFFCURVE",
"381 347 OFFCURVE",
"367 265 CURVE",
"114 264 LINE",
"117 234 LINE",
"416 234 LINE",
"444 332 OFFCURVE",
"390 485 OFFCURVE",
"262 485 CURVE"
);
}
);
width = 486;
}
);
leftKerningGroup = e;
rightKerningGroup = e;
unicode = 0065;
},
{
glyphname = g;
lastChange = "2020-01-18 18:52:38 +0000";
layers = (
{
layerId = "7EBE3D46-E53E-419E-A3EC-596DA2EA1E0D";
name = Regular;
paths = (
{
closed = 1;
nodes = (
"462.314 412.923 LINE",
"478.478 477 LINE",
"266 477 LINE",
"268.478 477 OFFCURVE",
"277.344 464.21 OFFCURVE",
"297.142 421.265 CURVE"
);
},
{
closed = 1;
nodes = (
"389.268 -188 OFFCURVE",
"469 -126.578 OFFCURVE",
"469 -50 CURVE",
"469 17.7741 OFFCURVE",
"412.173 77 OFFCURVE",
"287 77 CURVE",
"199.183 77 OFFCURVE",
"164.007 106.654 OFFCURVE",
"159.411 137.827 CURVE",
"167.942 173.655 LINE",
"133.951 186.53 LINE",
"108.891 160.053 OFFCURVE",
"99.8595 115.939 OFFCURVE",
"118 84.8433 CURVE",
"118 34.0123 LINE",
"91.2472 18.4615 OFFCURVE",
"63 -11.433 OFFCURVE",
"63 -57 CURVE",
"63.9356 -129.828 OFFCURVE",
"80.7543 -188 OFFCURVE",
"244 -188 CURVE",
"289 -188 LINE"
);
},
{
closed = 1;
nodes = (
"265 -124 LINE",
"176.502 -124 OFFCURVE",
"131.153 -107.921 OFFCURVE",
"129.995 -50.0214 CURVE",
"131.108 11.6558 OFFCURVE",
"184.344 23 OFFCURVE",
"265 23 CURVE",
"268 23 LINE",
"347.25 23 OFFCURVE",
"400.911 8.72728 OFFCURVE",
"402.005 -48.9868 CURVE",
"400.82 -112.395 OFFCURVE",
"355.468 -124 OFFCURVE",
"268 -124 CURVE"
);
},
{
closed = 1;
nodes = (
"451 400.559 OFFCURVE",
"318.782 419.898 OFFCURVE",
"253.611 416.835 CURVE",
"254.613 477 LINE",
"258 477 LINE",
"131.624 477 OFFCURVE",
"77 413.537 OFFCURVE",
"77 320 CURVE",
"31 320 LINE",
"31 325 LINE",
"76.983 325.884 LINE",
"80.4554 235.601 OFFCURVE",
"139.814 182 OFFCURVE",
"258 182 CURVE",
"262 182 LINE",
"264 182 OFFCURVE",
"265 182 OFFCURVE",
"267 182 CURVE",
"271 182 LINE",
"390.334 182 OFFCURVE",
"451 228.498 OFFCURVE",
"451 321 CURVE"
);
},
{
closed = 1;
nodes = (
"265 232 LINE",
"265 255 LINE",
"265 255 OFFCURVE",
"265 255 OFFCURVE",
"265 255 CURVE",
"265 232 LINE",
"259 232 LINE",
"176.546 232 OFFCURVE",
"154 274.841 OFFCURVE",
"154 321 CURVE",
"154 364.73 OFFCURVE",
"178.175 412 OFFCURVE",
"259 412 CURVE",
"265 412 LINE",
"265 389 LINE",
"265 389 OFFCURVE",
"265 389 OFFCURVE",
"265 389 CURVE",
"265 412 LINE",
"270 412 LINE",
"351.215 412 OFFCURVE",
"374 364.43 OFFCURVE",
"374 321 CURVE",
"374 277.25 OFFCURVE",
"350.8 232 OFFCURVE",
"270 232 CURVE"
);
}
);
width = 538;
}
);
leftKerningGroup = e;
unicode = 0067;
},
{
glyphname = k;
lastChange = "2020-01-18 18:52:38 +0000";
layers = (
{
components = (
{
name = _I_dbh;
transform = "{1, 0, 0, 1, 30, 0}";
}
);
layerId = "7EBE3D46-E53E-419E-A3EC-596DA2EA1E0D";
name = Regular;
paths = (
{
closed = 1;
nodes = (
"408.015 477 LINE",
"326.462 477 LINE",
"159.56 255.673 LINE",
"326.793 23 LINE",
"409.531 23 LINE",
"219.019 256.354 LINE"
);
}
);
width = 478;
}
);
leftKerningGroup = h;
rightKerningGroup = v;
unicode = 006B;
},
{
glyphname = r;
lastChange = "2020-01-18 18:52:38 +0000";
layers = (
{
components = (
{
name = "_i-dotless";
transform = "{1, 0, 0, 1, 3, 0}";
}
);
layerId = "7EBE3D46-E53E-419E-A3EC-596DA2EA1E0D";
name = Regular;
paths = (
{
closed = 1;
nodes = (
"354.88 473.652 LINE",
"317.518 473.464 OFFCURVE",
"286.612 468.156 OFFCURVE",
"261.943 456.408 CURVE",
"136.75 264.445 LINE",
"157.353 234.966 LINE",
"176.657 328.336 OFFCURVE",
"239.725 400.025 OFFCURVE",
"343.496 406.547 CURVE"
);
}
);
width = 397;
}
);
leftKerningGroup = n;
rightKerningGroup = f;
unicode = 0072;
},
{
glyphname = s;
lastChange = "2020-01-18 18:52:38 +0000";
layers = (
{
layerId = "7EBE3D46-E53E-419E-A3EC-596DA2EA1E0D";
name = Regular;
paths = (
{
closed = 1;
nodes = (
"207.622 278.012 LINE",
"166.546 300.937 OFFCURVE",
"130 313.648 OFFCURVE",
"130 355 CURVE",
"130 397.818 OFFCURVE",
"171.429 411 OFFCURVE",
"212 411 CURVE",
"211.303 410.989 LINE",
"239.631 411.848 OFFCURVE",
"274.909 408.426 OFFCURVE",
"307.261 402.056 CURVE",
"323.634 455.27 LINE",
"290.804 472.875 OFFCURVE",
"250.149 486 OFFCURVE",
"203 486 CURVE",
"117.835 486 OFFCURVE",
"63 428.785 OFFCURVE",
"63 378 CURVE",
"63 321.872 OFFCURVE",
"97.2033 299.5 OFFCURVE",
"147.857 265.738 CURVE",
"198.904 238.251 LINE",
"233.089 220.154 OFFCURVE",
"280 193.347 OFFCURVE",
"280 156 CURVE",
"280 106.166 OFFCURVE",
"224.91 92 OFFCURVE",
"182 92 CURVE",
"154.286 92 OFFCURVE",
"113.502 97.4103 OFFCURVE",
"82.1263 104.398 CURVE",
"66.8556 58.0205 LINE",
"101.84 31.3475 OFFCURVE",
"140.314 13 OFFCURVE",
"209 13 CURVE",
"292.378 13 OFFCURVE",
"352 73.425 OFFCURVE",
"352 125 CURVE",
"352 173.394 OFFCURVE",
"324.564 211.458 OFFCURVE",
"272.626 241.009 CURVE"
);
}
);
width = 415;
}
);
leftKerningGroup = e;
rightKerningGroup = e;
unicode = 0073;
},
{
glyphname = germandbls;
lastChange = "2020-01-18 18:52:38 +0000";
layers = (
{
layerId = "7EBE3D46-E53E-419E-A3EC-596DA2EA1E0D";
name = Regular;
paths = (
{
closed = 1;
nodes = (
"514 267.045 OFFCURVE",
"336 297.765 OFFCURVE",
"336 374 CURVE",
"336 449.537 OFFCURVE",
"468 451.441 OFFCURVE",
"468 571 CURVE",
"468 656.669 OFFCURVE",
"412.851 710 OFFCURVE",
"293 710 CURVE",
"173.812 710 OFFCURVE",
"83 643.458 OFFCURVE",
"83 504 CURVE",
"83 3 LINE",
"155 3 LINE",
"155 485 LINE",
"155 473.707 OFFCURVE",
"155.16 461.038 OFFCURVE",
"155.375 446.822 CURVE",
"199.528 599.373 LINE",
"196.029 596.199 OFFCURVE",
"192.789 593.103 OFFCURVE",
"189.808 590.121 CURVE",
"189.349 589.65 LINE",
"207.519 608.889 OFFCURVE",
"247.232 623 OFFCURVE",
"285 623 CURVE",
"324.418 623 OFFCURVE",
"354.423 617.085 OFFCURVE",
"373.241 605.135 CURVE",
"372.69 511.065 LINE",
"335.037 473.056 OFFCURVE",
"265 452.483 OFFCURVE",
"265 370 CURVE",
"265 303.4 OFFCURVE",
"307.833 267.381 OFFCURVE",
"347.646 238.426 CURVE",
"365.003 226.076 OFFCURVE",
"381.677 215.222 OFFCURVE",
"395.539 203.386 CURVE",
"416.347 94.987 LINE",
"397.79 81.5403 OFFCURVE",
"365.362 77.6686 OFFCURVE",
"326.067 75.9813 CURVE",
"306.842 75.9538 OFFCURVE",
"282.085 78.2611 OFFCURVE",
"263.86 82.0321 CURVE",
"264 82.2154 LINE",
"264 1.2402 LINE",
"283.701 -1.6959 OFFCURVE",
"312.149 -5 OFFCURVE",
"340 -5 CURVE",
"466.792 -5 OFFCURVE",
"514 68.2089 OFFCURVE",
"514 139 CURVE"
);
}
);
width = 597;
}
);
leftKerningGroup = h;
rightKerningGroup = c;
unicode = 00DF;
},
{
glyphname = t;
lastChange = "2020-01-18 18:52:38 +0000";
layers = (
{
components = (
{
name = _curve_lower;
transform = "{1, 0, 0, 1, 28, 1}";
}
);
hints = (
{
horizontal = 1;
place = "{420.000000, 80.000000}";
}
);
layerId = "7EBE3D46-E53E-419E-A3EC-596DA2EA1E0D";
name = Regular;
paths = (
{
closed = 1;
nodes = (
"43 424.951 LINE",
"43 412 LINE",
"144 412 LINE",
"144 202 LINE",
"144 85.5916 OFFCURVE",
"211 119.954 OFFCURVE",
"211 202 CURVE",
"211 412 LINE",
"368 412 LINE",
"368 477 LINE",
"211 477 LINE",
"211 587 LINE",
"218.013 587 LINE"
);
}
);
width = 481;
}
);
leftKerningGroup = c;
rightKerningGroup = c;
unicode = 0074;
},
{
glyphname = y;
lastChange = "2020-01-18 18:52:38 +0000";
layers = (
{
layerId = "7EBE3D46-E53E-419E-A3EC-596DA2EA1E0D";
name = Regular;
paths = (
{
closed = 1;
nodes = (
"395.814 477 LINE",
"257.537 42.7403 LINE",
"124.973 477 LINE",
"61 477 LINE",
"202.8 55.3311 LINE",
"202.536 56.0758 LINE",
"207.332 43.285 OFFCURVE",
"220.906 20.0434 OFFCURVE",
"223.239 19.6061 CURVE",
"240.043 -12.2837 LINE",
"225.043 -46.2837 LINE",
"209.387 -82.4909 OFFCURVE",
"164.115 -107.591 OFFCURVE",
"122.17 -113.853 CURVE",
"136.036 -178.962 LINE",
"189.901 -180.959 OFFCURVE",
"250.198 -143.673 OFFCURVE",
"276.18 -65.7268 CURVE",
"454.247 477 LINE"
);
}
);
width = 526;
}
);
leftKerningGroup = v;
rightKerningGroup = v;
unicode = 0079;
},
{
glyphname = y.001;
lastChange = "2020-01-18 18:52:38 +0000";
layers = (
{
layerId = "7EBE3D46-E53E-419E-A3EC-596DA2EA1E0D";
name = Regular;
paths = (
{
closed = 1;
nodes = (
"46.6893 477 LINE",
"194.693 23 LINE",
"229.341 23 LINE",
"245.586 100.112 LINE",
"230.918 99.249 LINE",
"122.665 477 LINE"
);
},
{
closed = 1;
nodes = (
"430.952 477 LINE",
"354.546 477 LINE",
"210.602 -48.3438 LINE",
"193.347 -106.506 OFFCURVE",
"155.391 -122.703 OFFCURVE",
"114.693 -115.421 CURVE",
"122.807 -198.365 LINE",
"185.49 -203.829 OFFCURVE",
"232.893 -168.206 OFFCURVE",
"257.636 -92.0727 CURVE"
);
}
);
width = 478;
}
);
leftKerningGroup = v;
rightKerningGroup = v;
},
{
glyphname = "De-cy";
lastChange = "2020-01-18 18:52:38 +0000";
layers = (
{
components = (
{
name = _I_small;
transform = "{1, 0, 0, 1, 97, 533}";
},
{
name = _I_small;
transform = "{1, 0, 0, 1, 97, 328}";
},
{
name = _I_small;
transform = "{1, 0, 0, 1, 97, 474}";
},
{
name = _I;
transform = "{1, 0, 0, 1, 417, 0}";
},
{
name = _EF_horizontal;
transform = "{1, 0, 0, 1, 260, -313}";
},
{
name = _EF_horizontal;
transform = "{1, 0, 0, 1, -112, -313}";
},
{
name = _EF_horizontal;
transform = "{1, 0, 0, 1, 10, 308}";
},
{
name = _EF_horizontal;
transform = "{1, 0, 0, 1, 140, 308}";
},
{
name = _EF_horizontal;
transform = "{1, 0, 0, 1, 66, -313}";
},
{
name = _D_cyr;
transform = "{-1, 0, 0, 1, 672, 0}";
},
{
name = _D_cyr;
transform = "{1, 0, 0, 1, -43, -1}";
}
);
layerId = "7EBE3D46-E53E-419E-A3EC-596DA2EA1E0D";
name = Regular;
paths = (
{
closed = 1;
nodes = (
"36.3668 61.8541 LINE",
"48.9455 64.497 OFFCURVE",
"69.7961 71 OFFCURVE",
"74 71 CURVE",
"131.853 71 OFFCURVE",
"217 64.1452 OFFCURVE",
"217 186 CURVE",
"217 352 LINE",
"150 352 LINE",
"150 178 LINE",
"150 123.341 OFFCURVE",
"118.081 82.2849 OFFCURVE",
"34.2907 78.3223 CURVE",
"36.4694 61.6188 LINE"
);
}
);
width = 629;
}
);
unicode = 0414;
},
{
glyphname = "be-cy";
lastChange = "2020-01-18 18:52:38 +0000";
layers = (
{
components = (
{
name = _o_curve;
transform = "{-1, -0, 0, -1, 532, 495}";
},
{
name = _o_curve;
transform = "{1, 0, 0, -1, 26, 495}";
},
{
name = _o_curve;
transform = "{-1, 0, 0, 1, 532, 0}";
}
);
layerId = "7EBE3D46-E53E-419E-A3EC-596DA2EA1E0D";
name = Regular;
paths = (
{
closed = 1;
nodes = (
"159.051 406.265 LINE",
"168.654 510.902 OFFCURVE",
"174.314 652.107 OFFCURVE",
"441.973 618.145 CURVE",
"423.513 696.602 LINE",
"128.661 738.433 OFFCURVE",
"84 549.543 OFFCURVE",
"84 355 CURVE",
"84 330.095 OFFCURVE",
"83.1459 270.981 OFFCURVE",
"83.0164 247.121 CURVE",
"84.3904 244.211 LINE",
"144.361 240.764 LINE"
);
},
{
closed = 1;
nodes = (
"267.297 414.824 LINE",
"261.776 490.74 LINE",
"197.594 476.928 OFFCURVE",
"144 400.366 OFFCURVE",
"144 277 CURVE",
"144 81.094 OFFCURVE",
"150 72.7652 OFFCURVE",
"150 270 CURVE",
"150 343.091 OFFCURVE",
"185.337 419 OFFCURVE",
"275 419 CURVE",
"276.176 419 OFFCURVE",
"277.351 419 OFFCURVE",
"278.527 419 CURVE"
);
}
);
width = 558;
}
);
leftKerningGroup = e;
rightKerningGroup = e;
unicode = 0431;
},
{
glyphname = "che-cy";
lastChange = "2020-01-18 18:52:38 +0000";
layers = (
{
components = (
{
name = _I_small;
transform = "{1, 0, 0, 1, 325, 0}";
},
{
name = _I_small;
transform = "{1, 0, 0, 1, 325, 165}";
},
{
name = _I_small;
transform = "{1, 0, 0, 1, 325, 329}";
},
{
name = _I_small;
transform = "{1, 0, 0, 1, 30, 332}";
}
);
layerId = "7EBE3D46-E53E-419E-A3EC-596DA2EA1E0D";
name = Regular;
paths = (
{
closed = 1;
nodes = (
"150 400.507 OFFCURVE",
"83 413.412 OFFCURVE",
"83 335 CURVE",
"83 223.299 OFFCURVE",
"140.704 165.763 OFFCURVE",
"268.061 174.992 CURVE",
"404.73 185.083 LINE",
"390.883 259.859 LINE",
"289.126 251.011 LINE",
"193.824 242.343 OFFCURVE",
"150 262.188 OFFCURVE",
"150 336 CURVE"
);
}
);
width = 528;
}
);
leftKerningGroup = e;
rightKerningGroup = n;
unicode = 0447;
},
{
glyphname = "ia-cy";
lastChange = "2020-01-18 18:52:38 +0000";
layers = (
{
components = (
{
name = "_i-dotless";
transform = "{1, 0, 0, 1, 269, 0}";
},
{
name = _ya_cyr;
transform = "{1, 0, 0, 1, -30, -120}";
}
);
layerId = "7EBE3D46-E53E-419E-A3EC-596DA2EA1E0D";
name = Regular;
paths = (
{
closed = 1;
nodes = (
"171.868 25.5887 OFFCURVE",
"191.565 74.7296 OFFCURVE",
"213.794 112.521 CURVE",
"246.958 169.88 OFFCURVE",
"309.09 158.398 OFFCURVE",
"336.236 159.995 CURVE",
"335.64 159.952 LINE",
"332.532 159.688 OFFCURVE",
"361.637 182.222 OFFCURVE",
"342.752 187.096 CURVE",
"333.481 189.425 OFFCURVE",
"213.527 173.307 OFFCURVE",
"200.057 172.029 CURVE",
"147.993 166.26 OFFCURVE",
"137.049 105.331 OFFCURVE",
"92 17.4357 CURVE",
"92 3 LINE",
"159.58 3 LINE"
);
}
);
width = 499;
}
);
leftKerningGroup = e;
rightKerningGroup = n;
unicode = 044F;
},
{
glyphname = one;
lastChange = "2020-01-18 18:52:38 +0000";
layers = (
{
components = (
{
name = _I_small;
transform = "{1, 0, 0, 1, 109, 23}";
},
{
name = _I_small;
transform = "{1, 0, 0, 1, 109, 168}";
},
{
name = _I_small;
transform = "{1, 0, 0, 1, 109, 331}";
},
{
name = _I_small;
transform = "{1, 0, 0, 1, 109, 477}";
},
{
name = "_dash-small";
transform = "{1, 0, 0, 1, -9, -219}";
},
{
name = "_dash-small";
transform = "{1, 0, 0, 1, -92, -219}";
}
);
layerId = "7EBE3D46-E53E-419E-A3EC-596DA2EA1E0D";
name = Regular;
paths = (
{
closed = 1;
nodes = (
"53 585.277 LINE",
"229 622.743 LINE",
"229 697 LINE",
"204.762 697 LINE",
"53 659.528 LINE"
);
}
);
width = 363;
}
);
unicode = 0031;
},
{
glyphname = five;
lastChange = "2020-01-18 18:52:38 +0000";
layers = (
{
components = (
{
name = _I_small;
transform = "{1, 0, 0, 1, 26, 385}";
},
{
name = _I_small;
transform = "{1, 0, 0, 1, 26, 532}";
},
{
name = _EF_horizontal;
transform = "{1, 0, 0, 1, 25, 307}";
},
{
name = _EF_horizontal;
transform = "{1, 0, 0, 1, -54, 307}";
},
{
name = _curve_cursive;
transform = "{-1, 0, 0, 1, 467, 0}";
}
);
layerId = "7EBE3D46-E53E-419E-A3EC-596DA2EA1E0D";
name = Regular;
paths = (
{
closed = 1;
nodes = (
"326 227 LINE",
"326 107.738 OFFCURVE",
"394 102.736 OFFCURVE",
"394 252 CURVE",
"394 368.497 OFFCURVE",
"334.634 468 OFFCURVE",
"211 468 CURVE",
"135.479 468 OFFCURVE",
"114.042 430.706 OFFCURVE",
"79 407.262 CURVE",
"79 359 LINE",
"87.2981 359 LINE",
"86.6964 358.469 LINE",
"79.3871 348.524 OFFCURVE",
"102.074 389 OFFCURVE",
"200 389 CURVE",
"283.146 389 OFFCURVE",
"326 335.383 OFFCURVE",
"326 254 CURVE"
);
}
);
width = 447;
}
);
unicode = 0035;
},
{
glyphname = six;
lastChange = "2020-01-18 18:52:38 +0000";
layers = (
{
components = (
{
name = _o_curve;
transform = "{-1, -0, 0, -1, 502, 495}";
},
{
name = _o_curve;
transform = "{1, 0, 0, -1, -4, 495}";
}
);
layerId = "7EBE3D46-E53E-419E-A3EC-596DA2EA1E0D";
name = Regular;
paths = (
{
closed = 1;
nodes = (
"110 295 LINE",
"110 420.542 OFFCURVE",
"131.413 594.584 OFFCURVE",
"282.621 598.999 CURVE",
"309.364 599.835 OFFCURVE",
"327.968 598.253 OFFCURVE",
"347.195 591.339 CURVE",
"374.298 678.973 LINE",
"343.65 688.584 OFFCURVE",
"320.895 690 OFFCURVE",
"276 690 CURVE",
"107.078 690 OFFCURVE",
"53 477.793 OFFCURVE",
"53 325 CURVE",
"53 244.258 LINE",
"110 240.825 LINE"
);
},
{
closed = 1;
nodes = (
"247.06 354.261 LINE",
"229.862 457.21 LINE",
"252.548 461 LINE",
"253.032 461 OFFCURVE",
"253.516 461 OFFCURVE",
"254 461 CURVE",
"254 438 LINE",
"180.175 438 OFFCURVE",
"114 357.692 OFFCURVE",
"114 222 CURVE",
"114 35.5897 OFFCURVE",
"120 27.3235 OFFCURVE",
"120 215 CURVE",
"120 280.502 OFFCURVE",
"164.969 354 OFFCURVE",
"255 354 CURVE",
"257.691 354 OFFCURVE",
"260.382 354 OFFCURVE",
"263.073 354 CURVE"
);
},
{
closed = 1;
nodes = (
"277.479 341.47 LINE",
"257 354 LINE",
"259 354 OFFCURVE",
"261 354 OFFCURVE",
"263 354 CURVE",
"342.876 354 OFFCURVE",
"378 298.524 OFFCURVE",
"378 233 CURVE",
"378 233 OFFCURVE",
"445 232 OFFCURVE",
"445 232 CURVE",
"443.007 347.62 OFFCURVE",
"382.041 438 OFFCURVE",
"264 438 CURVE",
"262.215 438 OFFCURVE",
"260.43 438 OFFCURVE",
"258.645 438 CURVE",
"268.295 427.621 LINE",
"269.879 356.335 LINE"
);
}
);
width = 498;
}
);
unicode = 0036;
},
{
glyphname = eight;
lastChange = "2020-01-18 18:52:38 +0000";
layers = (
{
layerId = "7EBE3D46-E53E-419E-A3EC-596DA2EA1E0D";
name = Regular;
paths = (
{
closed = 1;
nodes = (
"73 475.723 OFFCURVE",
"93.5097 418.114 OFFCURVE",
"132.046 386.065 CURVE",
"126.636 350.73 LINE",
"88.8901 321.384 OFFCURVE",
"63 265.126 OFFCURVE",
"63 189 CURVE",
"63 75.3058 OFFCURVE",
"133.134 -9 OFFCURVE",
"259 -9 CURVE",
"377.043 -9 OFFCURVE",
"457 83.2995 OFFCURVE",
"457 189 CURVE",
"457 284.655 OFFCURVE",
"400.737 349.617 OFFCURVE",
"343.663 368.342 CURVE",
"401.167 380.365 OFFCURVE",
"447 462.192 OFFCURVE",
"447 515 CURVE",
"447 642.517 OFFCURVE",
"364.929 706 OFFCURVE",
"259 706 CURVE",
"143.783 706 OFFCURVE",
"73 642.637 OFFCURVE",
"73 515 CURVE"
);
},
{
closed = 1;
nodes = (
"133 297.702 OFFCURVE",
"194.989 335 OFFCURVE",
"260 335 CURVE",
"323.431 335 OFFCURVE",
"385 294.458 OFFCURVE",
"385 207 CURVE",
"385 199 LINE",
"385 138.359 OFFCURVE",
"350.298 75 OFFCURVE",
"260 75 CURVE",
"163.302 75 OFFCURVE",
"133 139.137 OFFCURVE",
"133 199 CURVE"
);
},
{
closed = 1;
nodes = (
"143 579.317 OFFCURVE",
"182.482 621 OFFCURVE",
"260 621 CURVE",
"337.916 621 OFFCURVE",
"375 577.357 OFFCURVE",
"375 522 CURVE",
"375 515 LINE",
"375 462.571 OFFCURVE",
"330.498 401 OFFCURVE",
"260 401 CURVE",
"259 401 LINE",
"186.542 401 OFFCURVE",
"143 460.576 OFFCURVE",
"143 515 CURVE"
);
}
);
width = 520;
}
);
unicode = 0038;
},
{
glyphname = asterisk;
lastChange = "2020-01-18 18:52:38 +0000";
layers = (
{
layerId = "7EBE3D46-E53E-419E-A3EC-596DA2EA1E0D";
name = Regular;
paths = (
{
closed = 1;
nodes = (
"248.962 531.992 LINE",
"337.127 581.523 LINE",
"313.821 622.51 LINE",
"222 566.338 LINE",
"222 680 LINE",
"191 680 LINE",
"191 563.599 LINE",
"100.849 621.554 LINE",
"82.0579 582.406 LINE",
"169.013 533 LINE",
"81.9044 483.506 LINE",
"103.478 444.354 LINE",
"196 499.222 LINE",
"196 386 LINE",
"227 386 LINE",
"227 499.385 LINE",
"317.667 444.986 LINE",
"335.88 484.581 LINE"
);
}
);
width = 419;
}
);
unicode = 002A;
},
{
glyphname = bullet;
lastChange = "2020-01-18 18:52:38 +0000";
layers = (
{
layerId = "7EBE3D46-E53E-419E-A3EC-596DA2EA1E0D";
name = Regular;
paths = (
{
closed = 1;
nodes = (
"287.973 193 OFFCURVE",
"352 253.334 OFFCURVE",
"352 326 CURVE",
"352 400.666 OFFCURVE",
"287.973 461 OFFCURVE",
"218 461 CURVE",
"148.891 461 OFFCURVE",
"83 400.652 OFFCURVE",
"83 326 CURVE",
"83 253.348 OFFCURVE",
"148.891 193 OFFCURVE",
"218 193 CURVE"
);
}
);
width = 435;
}
);
unicode = 2022;
},
{
glyphname = numbersign;
lastChange = "2020-01-18 18:52:38 +0000";
layers = (
{
layerId = "7EBE3D46-E53E-419E-A3EC-596DA2EA1E0D";
name = Regular;
paths = (
{
closed = 1;
nodes = (
"591.844 284 LINE",
"488.731 284 LINE",
"506.341 457 LINE",
"614.251 457 LINE",
"620.79 542 LINE",
"515.742 542 LINE",
"530.742 697 LINE",
"466.7 697 LINE",
"452.7 542 LINE",
"298.742 542 LINE",
"313.742 697 LINE",
"250.7 697 LINE",
"236.7 542 LINE",
"116.749 542 LINE",
"110.21 457 LINE",
"226.256 457 LINE",
"209.681 284 LINE",
"88.7845 284 LINE",
"83.1845 200 LINE",
"201.269 200 LINE",
"181.269 3 LINE",
"244.34 3 LINE",
"264.34 200 LINE",
"417.269 200 LINE",
"397.269 3 LINE",
"460.34 3 LINE",
"480.34 200 LINE",
"587.177 200 LINE"
);
},
{
closed = 1;
nodes = (
"272.731 284 LINE",
"290.341 457 LINE",
"443.269 457 LINE",
"425.659 284 LINE"
);
}
);
width = 704;
}
);
unicode = 0023;
},
{
glyphname = question;
lastChange = "2020-01-18 18:52:38 +0000";
layers = (
{
components = (
{
name = _dot;
transform = "{1, 0, 0, 1, 104, -609}";
}
);
layerId = "7EBE3D46-E53E-419E-A3EC-596DA2EA1E0D";
name = Regular;
paths = (
{
closed = 1;
nodes = (
"346 479.27 OFFCURVE",
"324.506 438.811 OFFCURVE",
"231.693 352.186 CURVE",
"189.206 312.733 OFFCURVE",
"183.792 278.044 OFFCURVE",
"183.101 228 CURVE",
"262.589 228 LINE",
"265.432 280.24 OFFCURVE",
"278.435 306.962 OFFCURVE",
"298.737 327.263 CURVE",
"298.379 326.898 LINE",
"409.773 443.355 OFFCURVE",
"432 459.655 OFFCURVE",
"432 530 CURVE",
"432 623.612 OFFCURVE",
"371.295 695 OFFCURVE",
"241 695 CURVE",
"200.196 695 OFFCURVE",
"147.118 688.217 OFFCURVE",
"101.958 661.665 CURVE",
"113.126 587.207 LINE",
"149.587 603.401 OFFCURVE",
"192.482 617 OFFCURVE",
"240 617 CURVE",
"325.818 617 OFFCURVE",
"346 553.571 OFFCURVE",
"346 522 CURVE"
);
}
);
width = 518;
}
);
unicode = 003F;
},
{
glyphname = braceleft;
lastChange = "2020-01-18 18:52:38 +0000";
layers = (
{
layerId = "7EBE3D46-E53E-419E-A3EC-596DA2EA1E0D";
name = Regular;
paths = (
{
closed = 1;
nodes = (
"426 -108 LINE",
"410 -108 LINE",
"342.303 -108 OFFCURVE",
"301.895 -80.2289 OFFCURVE",
"296 -25.3735 CURVE",
"296 153 LINE",
"296 219.869 OFFCURVE",
"270.743 261.912 OFFCURVE",
"229.375 276.599 CURVE",
"229.046 295.024 LINE",
"271.351 311.981 OFFCURVE",
"295 353.082 OFFCURVE",
"295 420 CURVE",
"295 543.261 LINE",
"300.902 596.957 OFFCURVE",
"341.491 624 OFFCURVE",
"410 624 CURVE",
"426 624 LINE",
"426 710 LINE",
"393 710 LINE",
"270.68 710 OFFCURVE",
"220 640.648 OFFCURVE",
"220 533 CURVE",
"220 429 LINE",
"220 362.04 OFFCURVE",
"196.385 328 OFFCURVE",
"91 328 CURVE",
"83 328 LINE",
"83 244 LINE",
"91 244 LINE",
"192.534 244 OFFCURVE",
"220 204.534 OFFCURVE",
"220 141 CURVE",
"220 -17 LINE",
"220 -133.671 OFFCURVE",
"281.091 -192 OFFCURVE",
"393 -192 CURVE",
"426 -192 LINE"
);
}
);
width = 509;
}
);
unicode = 007B;
},
{
glyphname = braceright;
lastChange = "2020-01-18 18:52:38 +0000";
layers = (
{
layerId = "7EBE3D46-E53E-419E-A3EC-596DA2EA1E0D";
name = Regular;
paths = (
{
closed = 1;
nodes = (
"116 -191 LINE",
"227.909 -191 OFFCURVE",
"289 -132.671 OFFCURVE",
"289 -16 CURVE",
"289 142 LINE",
"289 205.534 OFFCURVE",
"316.466 245 OFFCURVE",
"418 245 CURVE",
"426 245 LINE",
"426 329 LINE",
"418 329 LINE",
"312.615 329 OFFCURVE",
"289 363.04 OFFCURVE",
"289 430 CURVE",
"289 534 LINE",
"289 641.648 OFFCURVE",
"238.32 711 OFFCURVE",
"116 711 CURVE",
"83 711 LINE",
"83 625 LINE",
"99 625 LINE",
"167.509 625 OFFCURVE",
"208.098 597.957 OFFCURVE",
"214 544.261 CURVE",
"214 421 LINE",
"214 354.082 OFFCURVE",
"237.649 312.981 OFFCURVE",
"279.954 296.024 CURVE",
"279.625 277.599 LINE",
"238.257 262.912 OFFCURVE",
"213 220.869 OFFCURVE",
"213 154 CURVE",
"213 -24.3735 LINE",
"207.105 -79.2289 OFFCURVE",
"166.697 -107 OFFCURVE",
"99 -107 CURVE",
"83 -107 LINE",
"83 -191 LINE"
);
}
);
width = 506;
}
);
unicode = 007D;
},
{
glyphname = currency;
lastChange = "2020-01-18 18:52:38 +0000";
layers = (
{
layerId = "7EBE3D46-E53E-419E-A3EC-596DA2EA1E0D";
name = Regular;
paths = (
{
closed = 1;
nodes = (
"141.831 566.696 LINE",
"81.3231 507.029 LINE",
"123.051 464.203 LINE",
"113.359 439.968 LINE",
"155.964 422.626 LINE",
"150.233 408.791 OFFCURVE",
"146 389.742 OFFCURVE",
"146 369 CURVE",
"146 349.258 OFFCURVE",
"150.23 330.224 OFFCURVE",
"156.116 315.087 CURVE",
"134.68 306.751 LINE",
"134.513 307.675 LINE",
"156.881 313.028 LINE",
"160.735 301.467 OFFCURVE",
"161.565 303.749 OFFCURVE",
"155.192 310.121 CURVE",
"115.929 293.82 LINE",
"115.975 266.084 LINE",
"83.3138 232.981 LINE",
"143.993 173.144 LINE",
"217.391 245.601 LINE",
"241.584 235.141 OFFCURVE",
"258.013 232 OFFCURVE",
"279 232 CURVE",
"301.168 232 OFFCURVE",
"317.43 235.151 OFFCURVE",
"341.683 245.631 CURVE",
"419 168.314 LINE",
"479.695 229.008 LINE",
"414.608 293.282 LINE",
"448.406 294.884 LINE",
"448.406 294.884 OFFCURVE",
"448.406 294.884 OFFCURVE",
"448.406 294.884 CURVE",
"414 369 LINE",
"414 369 OFFCURVE",
"414 369 OFFCURVE",
"414 369 CURVE",
"414 369 OFFCURVE",
"414 369 OFFCURVE",
"414 369 CURVE",
"359.467 468.298 LINE",
"459.131 481.522 OFFCURVE",
"462.402 424.376 OFFCURVE",
"441.583 407.376 CURVE",
"447.041 475.931 LINE",
"483.687 513.019 LINE",
"423.089 572.775 LINE",
"370 519.686 LINE",
"370 474.676 LINE",
"328.54 501.304 OFFCURVE",
"309.302 507 OFFCURVE",
"279 507 CURVE",
"261.352 507 OFFCURVE",
"247.277 504.848 OFFCURVE",
"229 497.01 CURVE",
"203.664 534.404 LINE",
"188.604 519.331 LINE"
);
},
{
closed = 1;
nodes = (
"307.844 441 OFFCURVE",
"331.766 428.251 OFFCURVE",
"345.995 409.639 CURVE",
"324.253 311.092 LINE",
"311.042 303.374 OFFCURVE",
"295.044 298 OFFCURVE",
"279 298 CURVE",
"270.407 298 OFFCURVE",
"261.406 299.132 OFFCURVE",
"252.933 301.246 CURVE",
"237.071 334.142 LINE",
"220.808 317.879 LINE",
"203.68 335.006 OFFCURVE",
"198 351.102 OFFCURVE",
"198 369 CURVE",
"198 377.259 OFFCURVE",
"199.736 385.069 OFFCURVE",
"205.372 396.341 CURVE",
"225.944 386.056 LINE",
"235.969 428.48 LINE",
"248.635 436.046 OFFCURVE",
"263.673 441 OFFCURVE",
"279 441 CURVE"
);
}
);
width = 565;
}
);
unicode = 00A4;
},
{
glyphname = infinity;
lastChange = "2020-01-18 18:52:38 +0000";
layers = (
{
layerId = "7EBE3D46-E53E-419E-A3EC-596DA2EA1E0D";
name = Regular;
paths = (
{
closed = 1;
nodes = (
"340.49 159 OFFCURVE",
"415.898 203.449 OFFCURVE",
"428.693 263.793 CURVE",
"436.94 263.007 LINE",
"465.048 202.346 OFFCURVE",
"485.948 156.002 OFFCURVE",
"588.128 154.999 CURVE",
"711.069 154.095 OFFCURVE",
"787.02 242.284 OFFCURVE",
"788 359.025 CURVE",
"788.981 476.686 OFFCURVE",
"706.197 569 OFFCURVE",
"591 569 CURVE",
"523.355 569 OFFCURVE",
"454.473 520.278 OFFCURVE",
"436.314 472.72 CURVE",
"427.717 472.898 LINE",
"413.344 522.81 OFFCURVE",
"346.926 569 OFFCURVE",
"275 569 CURVE",
"158.184 569 OFFCURVE",
"83.9802 478.709 OFFCURVE",
"82.9992 363.974 CURVE",
"82.0179 239.313 OFFCURVE",
"155.705 159 OFFCURVE",
"273 159 CURVE"
);
},
{
closed = 1;
nodes = (
"501.397 246.136 OFFCURVE",
"453.996 295.673 OFFCURVE",
"455.002 363.045 CURVE",
"455 430.305 OFFCURVE",
"504.959 477 OFFCURVE",
"583 477 CURVE",
"591 477 LINE",
"672.982 475.863 OFFCURVE",
"724 430.306 OFFCURVE",
"724 361 CURVE",
"722.994 292.708 OFFCURVE",
"672.012 243.86 OFFCURVE",
"588.822 245 CURVE"
);
},
{
closed = 1;
nodes = (
"184.614 247 OFFCURVE",
"146.994 297.539 OFFCURVE",
"148.002 365.045 CURVE",
"148 432.367 OFFCURVE",
"188.157 480.16 OFFCURVE",
"268.188 479 CURVE",
"275.006 479 LINE",
"357.954 479 OFFCURVE",
"409 432.308 OFFCURVE",
"409 363 CURVE",
"409 362 LINE",
"409 356 LINE",
"407.993 292.702 OFFCURVE",
"355.765 247 OFFCURVE",
"273 247 CURVE"
);
}
);
width = 871;
}
);
unicode = 221E;
},
{
glyphname = percent;
lastChange = "2020-01-18 18:52:38 +0000";
layers = (
{
components = (
{
name = _percent;
transform = "{1, 0, 0, 1, 390, -251}";
},
{
name = _percent;
transform = "{1, 0, 0, 1, 69, 192}";
}
);
layerId = "7EBE3D46-E53E-419E-A3EC-596DA2EA1E0D";
name = Regular;
paths = (
{
closed = 1;
nodes = (
"555.17 697 LINE",
"139 25.5662 LINE",
"139 4 LINE",
"199.85 4 LINE",
"618 674.43 LINE",
"618 697 LINE"
);
}
);
width = 696;
}
);
unicode = 0025;
},
{
glyphname = radical;
lastChange = "2020-01-18 18:52:38 +0000";
layers = (
{
components = (
{
name = _EF_horizontal;
transform = "{1, 0, 0, 1, 324, 308}";
},
{
name = _backslash;
transform = "{-1, 0, 0, 1, 595, 1}";
}
);
layerId = "7EBE3D46-E53E-419E-A3EC-596DA2EA1E0D";
name = Regular;
paths = (
{
closed = 1;
nodes = (
"83 393.954 LINE",
"240.663 -83 LINE",
"265.206 -83 LINE",
"291.322 3.08681 LINE",
"150.351 426 LINE",
"83 426 LINE"
);
}
);
width = 730;
}
);
unicode = 221A;
},
{
glyphname = summation;
lastChange = "2020-01-18 18:52:38 +0000";
layers = (
{
components = (
{
name = _EF_horizontal;
transform = "{1, 0, 0, 1, 149, 313}";
},
{
name = _EF_horizontal;
transform = "{1, 0, 0, 1, -1, 313}";
},
{
name = _X;
transform = "{-1, 0, 0, 1, 625, 8}";
},
{
name = _EF_horizontal;
transform = "{1, 0, -0, -1, 149, 392}";
},
{
name = _EF_horizontal;
transform = "{1, 0, -0, -1, -1, 392}";
},
{
name = _X;
transform = "{-1, 0, -0, -1, 625, 697}";
}
);
layerId = "7EBE3D46-E53E-419E-A3EC-596DA2EA1E0D";
name = Regular;
paths = (
{
closed = 1;
nodes = (
"389.992 352.04 LINE",
"318.727 242.042 LINE",
"320.278 463.585 LINE"
);
}
);
width = 555;
}
);
unicode = 2211;
},
{
glyphname = at;
lastChange = "2020-01-18 18:52:38 +0000";
layers = (
{
layerId = "7EBE3D46-E53E-419E-A3EC-596DA2EA1E0D";
name = Regular;
paths = (
{
closed = 1;
nodes = (
"599.277 96 LINE",
"666.355 96 LINE",
"708.723 498 LINE",
"641.645 498 LINE"
);
},
{
closed = 1;
nodes = (
"613.171 464.291 LINE",
"585.581 500.11 OFFCURVE",
"544.038 511 OFFCURVE",
"504 511 CURVE",
"362.275 511 OFFCURVE",
"290.938 394.777 OFFCURVE",
"278.929 280.686 CURVE",
"271.936 210.703 LINE",
"260.212 87.5537 OFFCURVE",
"328.594 -5 OFFCURVE",
"429 -5 CURVE",
"502.756 -5 OFFCURVE",
"548.945 34.5351 OFFCURVE",
"573.875 85.4405 CURVE"
);
},
{
closed = 1;
nodes = (
"344.061 271.286 LINE",
"351.688 348.503 OFFCURVE",
"393.387 432 OFFCURVE",
"495 432 CURVE",
"569.936 432 OFFCURVE",
"609.792 408.054 OFFCURVE",
"621.749 398.819 CURVE",
"630.554 378.122 LINE",
"619.923 280.675 LINE",
"612.061 210.933 OFFCURVE",
"589.416 73 OFFCURVE",
"438 73 CURVE",
"358.039 73 OFFCURVE",
"329.897 141.714 OFFCURVE",
"339.088 220.348 CURVE"
);
},
{
closed = 1;
nodes = (
"774.009 94 LINE",
"599.044 94 LINE",
"601.318 -74.6729 OFFCURVE",
"763.383 -66.9806 OFFCURVE",
"825.47 18.7595 CURVE",
"868.603 78.7969 OFFCURVE",
"900 156.784 OFFCURVE",
"900 268 CURVE",
"900 557.409 OFFCURVE",
"714.377 687 OFFCURVE",
"491 687 CURVE",
"270.36 687 OFFCURVE",
"103 550.572 OFFCURVE",
"103 268 CURVE",
"103 -14.5658 OFFCURVE",
"270.326 -150 OFFCURVE",
"491 -150 CURVE",
"525.439 -150 OFFCURVE",
"558.727 -146.117 OFFCURVE",
"592.315 -137.577 CURVE",
"560.898 -59.0341 LINE",
"538.853 -63.9036 OFFCURVE",
"516.677 -67 OFFCURVE",
"490 -67 CURVE",
"290.913 -67 OFFCURVE",
"170 47.6756 OFFCURVE",
"170 273 CURVE",
"170 500.351 OFFCURVE",
"291.24 607 OFFCURVE",
"490 607 CURVE",
"688.053 607 OFFCURVE",
"830 500.46 OFFCURVE",
"830 273 CURVE",
"830 214.621 OFFCURVE",
"819.227 155.856 OFFCURVE",
"793.628 104.658 CURVE",
"773.056 114.944 LINE",
"773.429 115.797 OFFCURVE",
"773.724 116.395 OFFCURVE",
"774.009 117 CURVE"
);
}
);
width = 983;
}
);
unicode = 0040;
},
{
glyphname = ampersand;
lastChange = "2020-01-18 18:52:38 +0000";
layers = (
{
layerId = "7EBE3D46-E53E-419E-A3EC-596DA2EA1E0D";
name = Regular;
paths = (
{
closed = 1;
nodes = (
"151 259.417 OFFCURVE",
"189.662 300.973 OFFCURVE",
"249.09 337.689 CURVE",
"419.31 120.477 LINE",
"388.792 88.0333 OFFCURVE",
"343.079 68 OFFCURVE",
"292 68 CURVE",
"202.687 68 OFFCURVE",
"151 119.693 OFFCURVE",
"151 194 CURVE"
);
},
{
closed = 1;
nodes = (
"402 495.97 OFFCURVE",
"345.32 459.414 OFFCURVE",
"274.848 423.586 CURVE",
"255.738 448.159 LINE",
"221.611 491.18 OFFCURVE",
"209 518.34 OFFCURVE",
"209 556 CURVE",
"209 605.418 OFFCURVE",
"240.826 646 OFFCURVE",
"308 646 CURVE",
"367.001 647.209 OFFCURVE",
"402 613.302 OFFCURVE",
"402 561 CURVE"
);
},
{
closed = 1;
nodes = (
"596 22.6935 LINE",
"512.059 124.409 LINE",
"543.725 181.981 OFFCURVE",
"568.362 256.797 OFFCURVE",
"568.039 312.273 CURVE",
"502.854 335.911 LINE",
"501.193 271.606 OFFCURVE",
"483.014 238.523 OFFCURVE",
"465.139 186.081 CURVE",
"314.58 373.72 LINE",
"394.577 420.705 OFFCURVE",
"468 460.403 OFFCURVE",
"468 570 CURVE",
"468 648.697 OFFCURVE",
"409.891 718 OFFCURVE",
"311 718 CURVE",
"206.87 718 OFFCURVE",
"142 644.703 OFFCURVE",
"142 547 CURVE",
"142 513.488 OFFCURVE",
"150.887 479.335 OFFCURVE",
"169.195 445.18 CURVE",
"209.625 386.372 LINE",
"147.442 347.331 OFFCURVE",
"83 293.542 OFFCURVE",
"83 183 CURVE",
"83 74.3039 OFFCURVE",
"158.483 -4 OFFCURVE",
"279 -4 CURVE",
"350.416 -4 OFFCURVE",
"405.533 19.4956 OFFCURVE",
"460.345 68.5147 CURVE",
"513.216 3 LINE",
"596 3 LINE"
);
}
);
width = 679;
}
);
unicode = 0026;
},
{
glyphname = paragraph;
lastChange = "2020-01-18 18:52:38 +0000";
layers = (
{
layerId = "7EBE3D46-E53E-419E-A3EC-596DA2EA1E0D";
name = Regular;
paths = (
{
closed = 1;
nodes = (
"130.006 269.051 OFFCURVE",
"57 371.224 OFFCURVE",
"57 489 CURVE",
"57 606.313 OFFCURVE",
"143.263 702 OFFCURVE",
"343 702 CURVE",
"534 702 LINE",
"534 -2 LINE",
"416 -2 LINE",
"416 624 LINE",
"358 624 LINE",
"358 273.117 LINE"
);
}
);
width = 591;
}
);
unicode = 00B6;
},
{
glyphname = section;
lastChange = "2020-01-18 18:52:38 +0000";
layers = (
{
layerId = "7EBE3D46-E53E-419E-A3EC-596DA2EA1E0D";
name = Regular;
paths = (
{
closed = 1;
nodes = (
"488.9 88.0321 OFFCURVE",
"525 152.808 OFFCURVE",
"525 212 CURVE",
"525 402.725 OFFCURVE",
"212 450.189 OFFCURVE",
"212 549 CURVE",
"212 569.364 OFFCURVE",
"219.36 579.876 OFFCURVE",
"245.789 597.496 CURVE",
"245.256 597.13 LINE",
"263.577 610.102 OFFCURVE",
"300.458 622 OFFCURVE",
"351 622 CURVE",
"389.341 622 OFFCURVE",
"425.431 617.838 OFFCURVE",
"465 608.819 CURVE",
"465 694.078 LINE",
"427.601 701.026 OFFCURVE",
"390.223 705 OFFCURVE",
"353 705 CURVE",
"184.04 705 OFFCURVE",
"139 613.586 OFFCURVE",
"139 540 CURVE",
"139 499.594 OFFCURVE",
"157.622 472.06 OFFCURVE",
"176.804 452.208 CURVE",
"117.385 419.999 OFFCURVE",
"83 351.005 OFFCURVE",
"83 295 CURVE",
"83 105.214 OFFCURVE",
"399 54.7787 OFFCURVE",
"399 -38 CURVE",
"399 -93.7996 OFFCURVE",
"348.195 -117 OFFCURVE",
"249 -117 CURVE",
"192.389 -117 OFFCURVE",
"147.987 -109.293 OFFCURVE",
"101 -95.8712 CURVE",
"101 -186.413 LINE",
"148.388 -197.292 OFFCURVE",
"183.967 -203 OFFCURVE",
"253 -203 CURVE",
"351.552 -203 OFFCURVE",
"471 -152.513 OFFCURVE",
"471 -32 CURVE",
"471 3.68301 OFFCURVE",
"452.822 33.8686 OFFCURVE",
"431.944 54.6505 CURVE"
);
},
{
closed = 1;
nodes = (
"277.958 159.97 OFFCURVE",
"151 215.196 OFFCURVE",
"151 303 CURVE",
"151 332.928 OFFCURVE",
"178.041 385.677 OFFCURVE",
"232.897 408.054 CURVE",
"325.707 345.033 OFFCURVE",
"458 293.011 OFFCURVE",
"458 204 CURVE",
"458 175.048 OFFCURVE",
"428.992 120.376 OFFCURVE",
"374.51 96.8882 CURVE"
);
}
);
width = 608;
}
);
unicode = 00A7;
},
{
glyphname = degree;
lastChange = "2020-01-18 18:52:38 +0000";
layers = (
{
layerId = "7EBE3D46-E53E-419E-A3EC-596DA2EA1E0D";
name = Regular;
paths = (
{
closed = 1;
nodes = (
"280.689 430 OFFCURVE",
"344 493.312 OFFCURVE",
"344 571 CURVE",
"344 647.689 OFFCURVE",
"280.689 711 OFFCURVE",
"214 711 CURVE",
"146.311 711 OFFCURVE",
"83 647.689 OFFCURVE",
"83 571 CURVE",
"83 493.312 OFFCURVE",
"146.311 430 OFFCURVE",
"214 430 CURVE"
);
},
{
closed = 1;
nodes = (
"160.578 490 OFFCURVE",
"124 527.698 OFFCURVE",
"124 572 CURVE",
"124 614.298 OFFCURVE",
"160.576 652 OFFCURVE",
"215 652 CURVE",
"268.312 652 OFFCURVE",
"306 614.289 OFFCURVE",
"306 572 CURVE",
"306 527.707 OFFCURVE",
"268.31 490 OFFCURVE",
"215 490 CURVE"
);
}
);
width = 427;
}
);
unicode = 00B0;
},
{
glyphname = cedilla;
lastChange = "2020-01-18 18:52:38 +0000";
layers = (
{
layerId = "7EBE3D46-E53E-419E-A3EC-596DA2EA1E0D";
name = Regular;
paths = (
{
closed = 1;
nodes = (
"245.275 -70.7685 LINE",
"268.195 -67.6576 OFFCURVE",
"317 -69.8555 OFFCURVE",
"317 -110 CURVE",
"271 -110 LINE",
"271 -103.509 OFFCURVE",
"267.338 -92.7271 OFFCURVE",
"256.234 -74.4472 CURVE",
"224.989 -212.295 LINE",
"310.321 -229.838 OFFCURVE",
"374 -216.165 OFFCURVE",
"374 -117 CURVE",
"374 -49.1919 OFFCURVE",
"342.638 -36.9481 OFFCURVE",
"321.744 -34.9759 CURVE",
"301.409 -7.29124 LINE",
"305.118 10.1428 LINE",
"257.639 4.36826 LINE"
);
}
);
width = 600;
}
);
unicode = 00B8;
},
{
glyphname = ogonek;
lastChange = "2020-01-18 18:52:38 +0000";
layers = (
{
layerId = "7EBE3D46-E53E-419E-A3EC-596DA2EA1E0D";
name = Regular;
paths = (
{
closed = 1;
nodes = (
"359.337 -133.288 LINE",
"358.122 -130.789 LINE",
"350.135 -131 OFFCURVE",
"342.342 -131 OFFCURVE",
"337 -131 CURVE",
"289.237 -131 OFFCURVE",
"274 -113.384 OFFCURVE",
"274 -90 CURVE",
"274 -63.752 OFFCURVE",
"288.688 -40.325 OFFCURVE",
"322 -25.7087 CURVE",
"322 -3 LINE",
"250.302 -3 LINE",
"195.019 -38.9646 OFFCURVE",
"194 -82.1022 OFFCURVE",
"194 -115 CURVE",
"194 -163.707 OFFCURVE",
"242.731 -217 OFFCURVE",
"305 -217 CURVE",
"318.376 -217 OFFCURVE",
"335.29 -216.405 OFFCURVE",
"350.201 -214.605 CURVE"
);
}
);
width = 600;
}
);
unicode = 02DB;
},
{
glyphname = ring;
lastChange = "2020-01-18 18:52:38 +0000";
layers = (
{
layerId = "7EBE3D46-E53E-419E-A3EC-596DA2EA1E0D";
name = Regular;
paths = (
{
closed = 1;
nodes = (
"364.502 533 OFFCURVE",
"420 588.499 OFFCURVE",
"420 655.5 CURVE",
"420 722.501 OFFCURVE",
"364.502 778 OFFCURVE",
"307.5 778 CURVE",
"250.498 778 OFFCURVE",
"195 722.501 OFFCURVE",
"195 655.5 CURVE",
"195 588.499 OFFCURVE",
"250.498 533 OFFCURVE",
"307.5 533 CURVE"
);
},
{
closed = 1;
nodes = (
"267.684 595 OFFCURVE",
"240 622.745 OFFCURVE",
"240 653 CURVE",
"240 684.237 OFFCURVE",
"267.833 711 OFFCURVE",
"308 711 CURVE",
"348.167 711 OFFCURVE",
"376 684.237 OFFCURVE",
"376 653 CURVE",
"376 622.745 OFFCURVE",
"348.316 595 OFFCURVE",
"308 595 CURVE"
);
}
);
width = 600;
}
);
unicode = 02DA;
},
{
glyphname = _one.001;
lastChange = "2020-01-18 18:52:38 +0000";
layers = (
{
components = (
{
name = _I_small;
transform = "{1, 0, 0, 1, 117, 3}";
},
{
name = _I_small;
transform = "{1, 0, 0, 1, 117, 168}";
},
{
name = _I_small;
transform = "{1, 0, 0, 1, 117, 331}";
},
{
name = _I_small;
transform = "{1, 0, 0, 1, 117, 477}";
},
{
name = "_dash-small";
transform = "{1, 0, 0, 1, -1, -219}";
},
{
name = "_dash-small";
transform = "{1, 0, 0, 1, -84, -219}";
}
);
layerId = "7EBE3D46-E53E-419E-A3EC-596DA2EA1E0D";
name = Regular;
paths = (
{
closed = 1;
nodes = (
"61 585.277 LINE",
"237 622.743 LINE",
"237 697 LINE",
"212.762 697 LINE",
"61 659.528 LINE"
);
}
);
width = 600;
}
);
},
{
glyphname = newGlyph;
lastChange = "2020-01-18 18:52:38 +0000";
layers = (
{
layerId = "7EBE3D46-E53E-419E-A3EC-596DA2EA1E0D";
name = Regular;
paths = (
{
closed = 1;
nodes = (
"437.549 186 OFFCURVE",
"481 245.571 OFFCURVE",
"481 317.5 CURVE",
"481 389.429 OFFCURVE",
"437.549 449 OFFCURVE",
"398.5 449 CURVE",
"359.451 449 OFFCURVE",
"316 389.429 OFFCURVE",
"316 317.5 CURVE",
"316 245.571 OFFCURVE",
"359.451 186 OFFCURVE",
"398.5 186 CURVE"
);
}
);
width = 600;
}
);
},
{
glyphname = _slash;
lastChange = "2020-01-18 18:52:38 +0000";
layers = (
{
layerId = "7EBE3D46-E53E-419E-A3EC-596DA2EA1E0D";
name = Regular;
paths = (
{
closed = 1;
nodes = (
"313.136 687 LINE",
"18.9495 4 LINE",
"92.554 4 LINE",
"307.554 530 LINE",
"317.351 530 LINE",
"294.149 687 LINE"
);
}
);
width = 600;
}
);
},
{
glyphname = _curve_B;
lastChange = "2020-01-18 18:52:38 +0000";
layers = (
{
layerId = "7EBE3D46-E53E-419E-A3EC-596DA2EA1E0D";
name = Regular;
paths = (
{
closed = 1;
nodes = (
"146.488 693.81 OFFCURVE",
"82.1178 692.003 OFFCURVE",
"45 689.958 CURVE",
"45 608.337 LINE",
"90.3533 617.615 OFFCURVE",
"162.921 618.462 OFFCURVE",
"227.523 616.994 CURVE",
"323.435 613.4 OFFCURVE",
"361 557.234 OFFCURVE",
"361 502 CURVE",
"361 421.164 OFFCURVE",
"311.604 392 OFFCURVE",
"201 392 CURVE",
"94.5294 392 LINE",
"82.5492 337 LINE",
"247 337 LINE",
"373.369 337 OFFCURVE",
"439 413.457 OFFCURVE",
"439 508 CURVE",
"439 628.752 OFFCURVE",
"359.971 691.163 OFFCURVE",
"225.685 693.002 CURVE"
);
}
);
width = 469;
}
);
},
{
glyphname = _I_dbh;
lastChange = "2020-01-18 18:52:38 +0000";
layers = (
{
components = (
{
name = _I_small;
transform = "{1, 0, 0, 1, 0, 98}";
},
{
name = _I_small;
transform = "{1, 0, 0, 1, 0, 426}";
},
{
name = _I_small;
transform = "{1, 0, 0, 1, 0, 562}";
},
{
name = _I_small;
transform = "{1, 0, 0, 1, 0, 533}";
},
{
name = _I_small;
transform = "{1, 0, 0, 1, 0, 21}";
},
{
name = _I_small;
transform = "{1, 0, 0, 1, 0, 165}";
},
{
name = _I_small;
transform = "{1, 0, 0, 1, 0, 328}";
},
{
name = _I_small;
transform = "{1, 0, 0, 1, 0, 474}";
}
);
layerId = "7EBE3D46-E53E-419E-A3EC-596DA2EA1E0D";
name = Regular;
paths = (
{
closed = 1;
nodes = (
"53 267 LINE",
"120 267 LINE",
"120 428 LINE",
"53 428 LINE"
);
}
);
width = 509;
}
);
},
{
glyphname = _curve_b;
lastChange = "2020-01-18 18:52:38 +0000";
layers = (
{
layerId = "7EBE3D46-E53E-419E-A3EC-596DA2EA1E0D";
name = Regular;
paths = (
{
closed = 1;
nodes = (
"159.745 488 OFFCURVE",
"143.417 392.354 OFFCURVE",
"144.94 343.131 CURVE",
"143.609 351.887 LINE",
"163.987 389.996 OFFCURVE",
"196.949 410 OFFCURVE",
"244 410 CURVE",
"325.862 410 OFFCURVE",
"371.133 345.316 OFFCURVE",
"369.998 247.733 CURVE",
"370 145.995 OFFCURVE",
"312.325 92.2302 OFFCURVE",
"242.403 91.0035 CURVE",
"190.663 90.1822 OFFCURVE",
"165.54 96.4439 OFFCURVE",
"138.28 107.965 CURVE",
"137.474 100.871 LINE",
"159.194 44.0192 OFFCURVE",
"190.458 12 OFFCURVE",
"261 12 CURVE",
"364.791 12 OFFCURVE",
"436 101.926 OFFCURVE",
"436 245 CURVE",
"435.072 408.282 OFFCURVE",
"364.586 488 OFFCURVE",
"253 488 CURVE"
);
}
);
width = 493;
}
);
},
{
glyphname = _C_curve;
lastChange = "2020-01-18 18:52:38 +0000";
layers = (
{
layerId = "7EBE3D46-E53E-419E-A3EC-596DA2EA1E0D";
name = Regular;
paths = (
{
closed = 1;
nodes = (
"430.172 630.93 LINE",
"390.065 654.009 OFFCURVE",
"346.294 663.729 OFFCURVE",
"282.621 662.008 CURVE",
"144.8 659.214 OFFCURVE",
"24 582.242 OFFCURVE",
"24 321 CURVE",
"24 112.678 OFFCURVE",
"92 143.696 OFFCURVE",
"92 352 CURVE",
"92 524.093 OFFCURVE",
"187.908 589.129 OFFCURVE",
"286.264 587.998 CURVE",
"335.496 587.164 OFFCURVE",
"379.463 574.155 OFFCURVE",
"414.765 557.594 CURVE"
);
}
);
width = 506;
}
);
},
{
glyphname = _I_small;
lastChange = "2020-01-18 18:52:38 +0000";
layers = (
{
layerId = "7EBE3D46-E53E-419E-A3EC-596DA2EA1E0D";
name = Regular;
paths = (
{
closed = 1;
nodes = (
"53 4 LINE",
"120 4 LINE",
"120 165 LINE",
"53 165 LINE"
);
}
);
width = 469;
}
);
},
{
glyphname = _curve_generic;
lastChange = "2020-01-18 18:52:38 +0000";
layers = (
{
layerId = "7EBE3D46-E53E-419E-A3EC-596DA2EA1E0D";
name = Regular;
paths = (
{
closed = 1;
nodes = (
"370 433.493 OFFCURVE",
"437 420.588 OFFCURVE",
"437 499 CURVE",
"437 610.563 OFFCURVE",
"378.015 699.913 OFFCURVE",
"252.095 699 CURVE",
"116.423 698.09 LINE",
"130.328 623 LINE",
"233 623 LINE",
"332.451 623 OFFCURVE",
"370 571.447 OFFCURVE",
"370 498 CURVE"
);
}
);
width = 600;
}
);
},
{
glyphname = _EF_horizontal;
lastChange = "2020-01-18 18:52:38 +0000";
layers = (
{
layerId = "7EBE3D46-E53E-419E-A3EC-596DA2EA1E0D";
name = Regular;
paths = (
{
closed = 1;
nodes = (
"147 315 LINE",
"323 315 LINE",
"323 390 LINE",
"147 390 LINE"
);
}
);
width = 600;
}
);
},
{
glyphname = "_dash-small";
lastChange = "2020-01-18 18:52:38 +0000";
layers = (
{
layerId = "7EBE3D46-E53E-419E-A3EC-596DA2EA1E0D";
name = Regular;
paths = (
{
closed = 1;
nodes = (
"183 245 LINE",
"319 245 LINE",
"319 320 LINE",
"183 320 LINE"
);
}
);
width = 600;
}
);
},
{
glyphname = _dot;
lastChange = "2020-01-18 18:52:38 +0000";
layers = (
{
layerId = "7EBE3D46-E53E-419E-A3EC-596DA2EA1E0D";
name = Regular;
paths = (
{
closed = 1;
nodes = (
"160.941 602 OFFCURVE",
"194 629.093 OFFCURVE",
"194 669 CURVE",
"194 710.111 OFFCURVE",
"160.818 738 OFFCURVE",
"131 738 CURVE",
"100.183 738 OFFCURVE",
"67 710.111 OFFCURVE",
"67 669 CURVE",
"67 629.093 OFFCURVE",
"100.059 602 OFFCURVE",
"131 602 CURVE"
);
}
);
width = 260;
}
);
},
{
glyphname = _hmn;
lastChange = "2020-01-18 18:56:33 +0000";
layers = (
{
components = (
{
name = _I_small;
transform = "{1, 0, 0, 1, 301, 127}";
},
{
name = _I_small;
transform = "{1, 0, 0, 1, 301, -1}";
}
);
layerId = "7EBE3D46-E53E-419E-A3EC-596DA2EA1E0D";
name = Regular;
paths = (
{
closed = 1;
nodes = (
"355 226 OFFCURVE",
"420 172 OFFCURVE",
"421 263 CURVE",
"421 297 LINE",
"421 424 OFFCURVE",
"399 517 OFFCURVE",
"285 517 CURVE",
"218 517 OFFCURVE",
"178 488 OFFCURVE",
"156 433 CURVE",
"156 424 LINE",
"181 434 OFFCURVE",
"210 439 OFFCURVE",
"255 438 CURVE",
"320 437 OFFCURVE",
"354 380 OFFCURVE",
"354 291 CURVE"
);
}
);
width = 600;
}
);
},
{
glyphname = _w_slash;
lastChange = "2020-01-18 18:52:38 +0000";
layers = (
{
layerId = "7EBE3D46-E53E-419E-A3EC-596DA2EA1E0D";
name = Regular;
paths = (
{
closed = 1;
nodes = (
"274.809 264 LINE",
"251.256 264 LINE",
"118.256 676 LINE",
"45.6309 676 LINE",
"263.724 3 LINE",
"240.802 3 LINE"
);
}
);
width = 600;
}
);
},
{
glyphname = _w_slash_2;
lastChange = "2020-01-18 18:52:38 +0000";
layers = (
{
layerId = "7EBE3D46-E53E-419E-A3EC-596DA2EA1E0D";
name = Regular;
paths = (
{
closed = 1;
nodes = (
"227.311 4 LINE",
"365.874 428.727 LINE",
"368.35 428.48 LINE",
"361.573 697 LINE",
"382.692 697 LINE",
"210 167.412 LINE",
"254.567 4 LINE"
);
}
);
width = 600;
}
);
},
{
glyphname = _X;
lastChange = "2020-01-18 18:52:38 +0000";
layers = (
{
layerId = "7EBE3D46-E53E-419E-A3EC-596DA2EA1E0D";
name = Regular;
paths = (
{
closed = 1;
nodes = (
"314.652 302 LINE",
"575.16 695 LINE",
"486.6 695 LINE",
"306 412.281 LINE",
"306 302 LINE"
);
}
);
width = 600;
}
);
},
{
glyphname = _curve_lower;
lastChange = "2020-01-18 18:52:38 +0000";
layers = (
{
layerId = "7EBE3D46-E53E-419E-A3EC-596DA2EA1E0D";
name = Regular;
paths = (
{
closed = 1;
nodes = (
"384.719 122.78 LINE",
"354.214 113.601 OFFCURVE",
"323.952 108.21 OFFCURVE",
"277.103 108 CURVE",
"228.189 108 OFFCURVE",
"183 147.583 OFFCURVE",
"183 214 CURVE",
"183 345 LINE",
"116 345 LINE",
"116 169 LINE",
"116 68.7372 OFFCURVE",
"170.307 13.3519 OFFCURVE",
"264.086 13.0021 CURVE",
"264.852 12.9865 LINE",
"307.214 11.4157 OFFCURVE",
"359.736 37.6443 OFFCURVE",
"393.416 70.6007 CURVE"
);
}
);
width = 476;
}
);
},
{
glyphname = _curve_lower_big;
lastChange = "2020-01-18 18:52:38 +0000";
layers = (
{
layerId = "7EBE3D46-E53E-419E-A3EC-596DA2EA1E0D";
name = Regular;
paths = (
{
closed = 1;
nodes = (
"-223.387 98.5293 LINE",
"-252.59 88.0446 OFFCURVE",
"-278.194 85.2003 OFFCURVE",
"-330.354 86.0027 CURVE",
"-394.586 86 OFFCURVE",
"-462 134.291 OFFCURVE",
"-462 231 CURVE",
"-462 251 LINE",
"-462 325.246 OFFCURVE",
"-530 316.966 OFFCURVE",
"-530 261 CURVE",
"-530 222 LINE",
"-530 84.1265 OFFCURVE",
"-440.566 -2.94732 OFFCURVE",
"-341.835 0.94375 CURVE",
"-296.623 0.0422449 OFFCURVE",
"-246.279 11.2443 OFFCURVE",
"-214.489 39.212 CURVE"
);
}
);
width = 526;
}
);
},
{
glyphname = _o_curve;
lastChange = "2020-01-18 18:55:11 +0000";
layers = (
{
layerId = "7EBE3D46-E53E-419E-A3EC-596DA2EA1E0D";
name = Regular;
paths = (
{
closed = 1;
nodes = (
"233.197 483.878 LINE",
"127.36 473.636 OFFCURVE",
"66.9721 393.879 OFFCURVE",
"58.8929 270 CURVE",
"125.183 270 LINE",
"132.306 339.334 OFFCURVE",
"171.786 409 OFFCURVE",
"249 409 CURVE"
);
}
);
width = 900;
}
);
},
{
glyphname = _M;
lastChange = "2020-01-18 18:52:38 +0000";
layers = (
{
layerId = "7EBE3D46-E53E-419E-A3EC-596DA2EA1E0D";
name = Regular;
paths = (
{
closed = 1;
nodes = (
"589.919 560.813 LINE",
"589 706.855 LINE",
"589 705 LINE",
"597.038 705 LINE",
"316.595 402.618 LINE",
"323.549 296 LINE",
"305.196 296 LINE",
"515.448 515.053 LINE"
);
}
);
width = 642;
}
);
},
{
glyphname = _O;
lastChange = "2020-01-18 18:52:38 +0000";
layers = (
{
layerId = "7EBE3D46-E53E-419E-A3EC-596DA2EA1E0D";
name = Regular;
paths = (
{
closed = 1;
nodes = (
"278.925 704 LINE",
"284 704 LINE",
"134.927 704 OFFCURVE",
"33 579.816 OFFCURVE",
"33 361 CURVE",
"33 405.407 OFFCURVE",
"100 406.863 OFFCURVE",
"100 363 CURVE",
"100 550.735 OFFCURVE",
"179.581 617 OFFCURVE",
"295 617 CURVE",
"278.64 617 LINE"
);
}
);
width = 900;
}
);
},
{
glyphname = _x;
lastChange = "2020-01-18 18:52:38 +0000";
layers = (
{
layerId = "7EBE3D46-E53E-419E-A3EC-596DA2EA1E0D";
name = Regular;
paths = (
{
closed = 1;
nodes = (
"372.657 197.962 LINE",
"492.144 23 LINE",
"581.594 23 LINE",
"395.908 285.873 LINE",
"389.843 273.337 LINE"
);
}
);
width = 900;
}
);
},
{
glyphname = _w_small_slash;
lastChange = "2020-01-18 18:52:38 +0000";
layers = (
{
layerId = "7EBE3D46-E53E-419E-A3EC-596DA2EA1E0D";
name = Regular;
paths = (
{
closed = 1;
nodes = (
"230.544 185 LINE",
"232.881 185 LINE",
"126.881 477 LINE",
"57.609 477 LINE",
"241.74 3 LINE",
"219.369 3 LINE"
);
}
);
width = 900;
}
);
},
{
glyphname = _w_small_slash_2;
lastChange = "2020-01-18 18:52:38 +0000";
layers = (
{
layerId = "7EBE3D46-E53E-419E-A3EC-596DA2EA1E0D";
name = Regular;
paths = (
{
closed = 1;
nodes = (
"384.619 189.751 LINE",
"267.169 497 LINE",
"285.596 497 LINE",
"264.685 308 LINE",
"274.86 308 LINE",
"390.86 3 LINE",
"367.96 3 LINE"
);
}
);
width = 900;
}
);
},
{
glyphname = _y;
lastChange = "2020-01-18 18:52:38 +0000";
layers = (
{
layerId = "7EBE3D46-E53E-419E-A3EC-596DA2EA1E0D";
name = Regular;
paths = (
{
closed = 1;
nodes = (
"313.076 13 LINE",
"528.989 497 LINE",
"449.62 497 LINE",
"313.717 154.412 LINE",
"336.58 13 LINE"
);
}
);
width = 900;
}
);
},
{
glyphname = _D;
lastChange = "2020-01-18 18:52:38 +0000";
layers = (
{
layerId = "7EBE3D46-E53E-419E-A3EC-596DA2EA1E0D";
name = Regular;
paths = (
{
closed = 1;
nodes = (
"503 224.777 OFFCURVE",
"570 240.181 OFFCURVE",
"570 389 CURVE",
"570 597.698 OFFCURVE",
"450.068 705.212 OFFCURVE",
"282.617 708.003 CURVE",
"221.443 708.865 OFFCURVE",
"144.669 700.486 OFFCURVE",
"95 691.895 CURVE",
"95 609.587 LINE",
"146.299 620.631 OFFCURVE",
"225.011 629 OFFCURVE",
"270 629 CURVE",
"421.044 629 OFFCURVE",
"503 526.132 OFFCURVE",
"503 389 CURVE"
);
}
);
width = 533;
}
);
},
{
glyphname = _qtail;
lastChange = "2020-01-18 18:52:38 +0000";
layers = (
{
anchors = (
{
name = _tailq;
position = "{467, 92}";
}
);
layerId = "7EBE3D46-E53E-419E-A3EC-596DA2EA1E0D";
name = Regular;
paths = (
{
closed = 1;
nodes = (
"333 203.344 LINE",
"478.6 4 LINE",
"534 4 LINE",
"534 25.636 LINE",
"342.24 300 LINE",
"333 300 LINE"
);
}
);
width = 616;
}
);
},
{
glyphname = _m_curve;
lastChange = "2020-01-18 18:52:38 +0000";
layers = (
{
layerId = "7EBE3D46-E53E-419E-A3EC-596DA2EA1E0D";
name = Regular;
paths = (
{
closed = 1;
nodes = (
"148.532 488 OFFCURVE",
"134.397 417.058 OFFCURVE",
"116.174 310.896 CURVE",
"107.876 323.862 LINE",
"121.086 380.422 OFFCURVE",
"153.452 412 OFFCURVE",
"206 412 CURVE",
"265.629 412 OFFCURVE",
"299 357.799 OFFCURVE",
"299 263 CURVE",
"299 23 LINE",
"366 23 LINE",
"366 273 LINE",
"364.101 408.647 OFFCURVE",
"325.406 488 OFFCURVE",
"226 488 CURVE"
);
}
);
width = 741;
}
);
},
{
glyphname = _R_slash;
lastChange = "2020-01-18 18:52:38 +0000";
layers = (
{
layerId = "7EBE3D46-E53E-419E-A3EC-596DA2EA1E0D";
name = Regular;
paths = (
{
closed = 1;
nodes = (
"219.773 372 LINE",
"390.973 5 LINE",
"461.23 5 LINE",
"291.013 372 LINE"
);
}
);
width = 533;
}
);
},
{
glyphname = _fraction_slash;
lastChange = "2020-01-18 18:52:38 +0000";
layers = (
{
layerId = "7EBE3D46-E53E-419E-A3EC-596DA2EA1E0D";
name = Regular;
paths = (
{
closed = 1;
nodes = (
"422.647 697 LINE",
"195 15.0539 LINE",
"195 4 LINE",
"230.299 4 LINE",
"450 684.974 LINE",
"450 697 LINE"
);
}
);
width = 710;
}
);
},
{
glyphname = _backslash;
lastChange = "2020-01-18 18:52:38 +0000";
layers = (
{
layerId = "7EBE3D46-E53E-419E-A3EC-596DA2EA1E0D";
name = Regular;
paths = (
{
closed = 1;
nodes = (
"83 674.962 LINE",
"302.678 4 LINE",
"362 4 LINE",
"362 25.0287 LINE",
"144.305 697 LINE",
"83 697 LINE"
);
}
);
width = 600;
}
);
},
{
glyphname = _exclamation;
lastChange = "2020-01-18 18:52:38 +0000";
layers = (
{
layerId = "7EBE3D46-E53E-419E-A3EC-596DA2EA1E0D";
name = Regular;
paths = (
{
closed = 1;
nodes = (
"96.8633 241 LINE",
"164.137 241 LINE",
"183.877 696 LINE",
"77.1236 696 LINE"
);
}
);
width = 600;
}
);
},
{
glyphname = _two_question;
lastChange = "2020-01-18 18:52:38 +0000";
layers = (
{
layerId = "7EBE3D46-E53E-419E-A3EC-596DA2EA1E0D";
name = Regular;
paths = (
{
closed = 1;
nodes = (
"245.204 255.893 LINE",
"245.804 247.063 LINE",
"256.197 238.353 OFFCURVE",
"275.995 221.957 OFFCURVE",
"295.284 207.094 CURVE",
"423.872 383.973 OFFCURVE",
"461 449.041 OFFCURVE",
"461 538 CURVE",
"461 641.697 OFFCURVE",
"392.501 713 OFFCURVE",
"260 713 CURVE",
"216.985 713 OFFCURVE",
"159.655 705.391 OFFCURVE",
"108.65 672.078 CURVE",
"124.701 591.823 LINE",
"160.971 608.847 OFFCURVE",
"206.876 625 OFFCURVE",
"259 625 CURVE",
"359.073 625 OFFCURVE",
"385 577.176 OFFCURVE",
"385 530 CURVE",
"385 466.477 OFFCURVE",
"362.404 425.215 OFFCURVE",
"261.675 280.287 CURVE"
);
}
);
width = 565;
}
);
},
{
glyphname = _quote;
lastChange = "2020-01-18 18:52:38 +0000";
layers = (
{
layerId = "7EBE3D46-E53E-419E-A3EC-596DA2EA1E0D";
name = Regular;
paths = (
{
closed = 1;
nodes = (
"144.806 -27.5989 LINE",
"141.731 -49.2304 OFFCURVE",
"127.559 -79.8133 OFFCURVE",
"108.899 -116.235 CURVE",
"145.705 -124.066 LINE",
"138.364 -122.52 LINE",
"129.149 -111.822 OFFCURVE",
"199.353 -43.9671 OFFCURVE",
"206.5 53.1033 CURVE",
"141.468 8.18454 LINE"
);
}
);
width = 600;
}
);
},
{
glyphname = _bracket;
lastChange = "2020-01-18 18:52:38 +0000";
layers = (
{
layerId = "7EBE3D46-E53E-419E-A3EC-596DA2EA1E0D";
name = Regular;
paths = (
{
closed = 1;
nodes = (
"460.857 -139.117 LINE",
"334.976 -14.2359 OFFCURVE",
"273 123.112 OFFCURVE",
"273 270 CURVE",
"273 416.916 OFFCURVE",
"334 552.29 OFFCURVE",
"460.849 679.124 CURVE",
"404.677 719.828 LINE",
"252.824 572.341 OFFCURVE",
"193 415.768 OFFCURVE",
"193 264 CURVE",
"193 101.495 OFFCURVE",
"266.093 -50.8295 OFFCURVE",
"403.483 -180.918 CURVE"
);
}
);
width = 600;
}
);
},
{
glyphname = _square_bracket;
lastChange = "2020-01-18 18:52:38 +0000";
layers = (
{
layerId = "7EBE3D46-E53E-419E-A3EC-596DA2EA1E0D";
name = Regular;
paths = (
{
closed = 1;
nodes = (
"277 698 LINE",
"116 698 LINE",
"116 -198 LINE",
"277 -198 LINE",
"277 -120 LINE",
"187 -120 LINE",
"187 619 LINE",
"277 619 LINE"
);
}
);
width = 600;
}
);
},
{
glyphname = _percent;
lastChange = "2020-01-18 18:52:38 +0000";
layers = (
{
layerId = "7EBE3D46-E53E-419E-A3EC-596DA2EA1E0D";
name = Regular;
paths = (
{
closed = 1;
nodes = (
"82.8209 532 OFFCURVE",
"24 496.071 OFFCURVE",
"24 387 CURVE",
"24 274.069 OFFCURVE",
"82.3726 243 OFFCURVE",
"143 243 CURVE",
"202.63 243 OFFCURVE",
"263 275.071 OFFCURVE",
"263 387 CURVE",
"263 497.982 OFFCURVE",
"204.255 532 OFFCURVE",
"143 532 CURVE"
);
},
{
closed = 1;
nodes = (
"185.845 468 OFFCURVE",
"203 456.541 OFFCURVE",
"203 387 CURVE",
"203 314.966 OFFCURVE",
"184.564 307 OFFCURVE",
"143 307 CURVE",
"99.7624 307 OFFCURVE",
"83 319.534 OFFCURVE",
"83 387 CURVE",
"83 455.629 OFFCURVE",
"102.172 468 OFFCURVE",
"143 468 CURVE"
);
}
);
width = 600;
}
);
},
{
glyphname = _multiply;
lastChange = "2020-01-18 18:52:38 +0000";
layers = (
{
layerId = "7EBE3D46-E53E-419E-A3EC-596DA2EA1E0D";
name = Regular;
paths = (
{
closed = 1;
nodes = (
"401.639 279.953 LINE",
"196.621 498.321 LINE",
"147.287 456.148 LINE",
"354.482 232.795 LINE"
);
}
);
width = 561;
}
);
},
{
glyphname = _less_equal;
lastChange = "2020-01-18 18:52:38 +0000";
layers = (
{
layerId = "7EBE3D46-E53E-419E-A3EC-596DA2EA1E0D";
name = Regular;
paths = (
{
closed = 1;
nodes = (
"477 414.905 LINE",
"99.831 603 LINE",
"95 603 LINE",
"95 517.258 LINE",
"386.709 384.044 LINE",
"477 384.881 LINE"
);
}
);
width = 600;
}
);
},
{
glyphname = _f_integral;
lastChange = "2020-01-18 18:52:38 +0000";
layers = (
{
layerId = "7EBE3D46-E53E-419E-A3EC-596DA2EA1E0D";
name = Regular;
paths = (
{
closed = 1;
nodes = (
"333.144 725.293 OFFCURVE",
"308.572 730 OFFCURVE",
"273 730 CURVE",
"198.043 730 OFFCURVE",
"140 667.661 OFFCURVE",
"140 595 CURVE",
"140 369 LINE",
"207 369 LINE",
"207 533 LINE",
"207 608.092 OFFCURVE",
"253.385 634.763 OFFCURVE",
"296.343 635.991 CURVE",
"327.089 636.759 OFFCURVE",
"344.604 636.303 OFFCURVE",
"365.01 633.409 CURVE",
"379.682 703.81 LINE"
);
}
);
width = 390;
}
);
},
{
glyphname = _circum_part;
lastChange = "2020-01-18 18:52:38 +0000";
layers = (
{
layerId = "7EBE3D46-E53E-419E-A3EC-596DA2EA1E0D";
name = Regular;
paths = (
{
closed = 1;
nodes = (
"273.978 261.33 LINE",
"359.057 160 LINE",
"425 160 LINE",
"425 174.699 LINE",
"285.027 338 LINE",
"274.961 338 LINE"
);
}
);
width = 600;
}
);
},
{
glyphname = _circle;
lastChange = "2020-01-18 18:52:38 +0000";
layers = (
{
layerId = "7EBE3D46-E53E-419E-A3EC-596DA2EA1E0D";
name = Regular;
paths = (
{
closed = 1;
nodes = (
"419.718 59 OFFCURVE",
"561 199.315 OFFCURVE",
"561 372 CURVE",
"561 543.687 OFFCURVE",
"419.687 685 OFFCURVE",
"258 685 CURVE",
"95.3443 685 OFFCURVE",
"-45 543.688 OFFCURVE",
"-45 372 CURVE",
"-45 199.313 OFFCURVE",
"95.3131 59 OFFCURVE",
"258 59 CURVE"
);
},
{
closed = 1;
nodes = (
"104.324 110 OFFCURVE",
"-9 233.691 OFFCURVE",
"-9 375 CURVE",
"-9 517.309 OFFCURVE",
"104.5 636 OFFCURVE",
"257 636 CURVE",
"409.462 636 OFFCURVE",
"524 517.309 OFFCURVE",
"524 375 CURVE",
"524 233.692 OFFCURVE",
"409.639 110 OFFCURVE",
"257 110 CURVE"
);
}
);
width = 515;
}
);
},
{
glyphname = _acute;
lastChange = "2020-01-18 18:52:38 +0000";
layers = (
{
layerId = "7EBE3D46-E53E-419E-A3EC-596DA2EA1E0D";
name = Regular;
paths = (
{
closed = 1;
nodes = (
"292.583 720.206 OFFCURVE",
"254.887 645.995 OFFCURVE",
"227.975 593 CURVE",
"291 593 LINE",
"262.924 593 OFFCURVE",
"375.376 726.917 OFFCURVE",
"372.419 764.065 CURVE",
"304.592 764.872 LINE"
);
}
);
width = 600;
}
);
},
{
glyphname = _breve;
lastChange = "2020-01-18 18:52:38 +0000";
layers = (
{
layerId = "7EBE3D46-E53E-419E-A3EC-596DA2EA1E0D";
name = Regular;
paths = (
{
closed = 1;
nodes = (
"112.562 754.182 LINE",
"110.972 727.451 OFFCURVE",
"111.403 589 OFFCURVE",
"289 589 CURVE",
"362.25 589 OFFCURVE",
"361.267 666 OFFCURVE",
"267 666 CURVE",
"215.974 666 OFFCURVE",
"185.189 706.241 OFFCURVE",
"184.033 756 CURVE",
"113.567 756 LINE"
);
}
);
width = 600;
}
);
},
{
glyphname = _i_dotless_full;
lastChange = "2020-01-18 18:52:38 +0000";
layers = (
{
components = (
{
name = _I_small;
transform = "{1, 0, 0, 1, 101, 143}";
},
{
name = _I_small;
transform = "{1, 0, 0, 1, 101, 272}";
},
{
name = _I_small;
transform = "{1, 0, 0, 1, 101, 312}";
},
{
name = _I_small;
transform = "{1, 0, 0, 1, 101, 20}";
}
);
hints = (
{
horizontal = 1;
place = "{420.000000, 80.000000}";
}
);
layerId = "7EBE3D46-E53E-419E-A3EC-596DA2EA1E0D";
name = Regular;
paths = (
{
closed = 1;
nodes = (
"93 412 LINE",
"209 412 LINE",
"209 477 LINE",
"93 477 LINE"
);
}
);
width = 323;
}
);
},
{
glyphname = _slash_diacritics;
lastChange = "2020-01-18 18:52:38 +0000";
layers = (
{
layerId = "7EBE3D46-E53E-419E-A3EC-596DA2EA1E0D";
name = Regular;
paths = (
{
closed = 1;
nodes = (
"297.01 378.663 LINE",
"295.214 456.797 LINE",
"26.0032 357.325 LINE",
"25.105 277.383 LINE"
);
}
);
width = 515;
}
);
},
{
glyphname = _cedilla_fragment;
lastChange = "2020-01-18 18:52:38 +0000";
layers = (
{
layerId = "7EBE3D46-E53E-419E-A3EC-596DA2EA1E0D";
name = Regular;
paths = (
{
closed = 1;
nodes = (
"310 309.758 LINE",
"342.783 289.716 OFFCURVE",
"374.063 275.15 OFFCURVE",
"420.764 275.999 CURVE",
"469.336 276.851 OFFCURVE",
"502.855 292.384 OFFCURVE",
"539.456 331.849 CURVE",
"521.909 406.218 LINE",
"489.034 382.797 OFFCURVE",
"452.465 367.953 OFFCURVE",
"415.334 367 CURVE",
"414.741 366.993 LINE",
"372.698 366.999 OFFCURVE",
"339.406 385.768 OFFCURVE",
"310 405.025 CURVE"
);
}
);
width = 600;
}
);
},
{
glyphname = _ve_cyr;
lastChange = "2020-01-18 18:52:38 +0000";
layers = (
{
layerId = "7EBE3D46-E53E-419E-A3EC-596DA2EA1E0D";
name = Regular;
paths = (
{
closed = 1;
nodes = (
"123.247 441.304 LINE",
"124.569 438 LINE",
"160.922 438 OFFCURVE",
"245.977 438 OFFCURVE",
"255 438 CURVE",
"408.703 439.924 OFFCURVE",
"457 474.157 OFFCURVE",
"457 559 CURVE",
"457 643.02 OFFCURVE",
"389.471 679.93 OFFCURVE",
"261.167 679 CURVE",
"125.528 678.168 LINE",
"139.195 603 LINE",
"282 603 LINE",
"343.135 603 OFFCURVE",
"379 594.482 OFFCURVE",
"379 548 CURVE",
"379 501.54 OFFCURVE",
"350.845 481 OFFCURVE",
"279 481 CURVE",
"132.158 481 LINE"
);
}
);
width = 556;
}
);
},
{
glyphname = _three;
lastChange = "2020-01-18 18:52:38 +0000";
layers = (
{
layerId = "7EBE3D46-E53E-419E-A3EC-596DA2EA1E0D";
name = Regular;
paths = (
{
closed = 1;
nodes = (
"312.047 349.089 OFFCURVE",
"456 369.669 OFFCURVE",
"456 522 CURVE",
"456 625.696 OFFCURVE",
"377.524 707 OFFCURVE",
"245 707 CURVE",
"201.984 707 OFFCURVE",
"144.655 699.391 OFFCURVE",
"93.6496 666.078 CURVE",
"109.701 585.823 LINE",
"145.97 602.847 OFFCURVE",
"191.876 619 OFFCURVE",
"244 619 CURVE",
"346.022 619 OFFCURVE",
"380 562.594 OFFCURVE",
"380 514 CURVE",
"380 427.769 OFFCURVE",
"303.187 388.762 OFFCURVE",
"185 384.413 CURVE",
"185 334.731 LINE"
);
}
);
width = 539;
}
);
},
{
glyphname = _ze_cyr;
lastChange = "2020-01-18 18:52:38 +0000";
layers = (
{
layerId = "7EBE3D46-E53E-419E-A3EC-596DA2EA1E0D";
name = Regular;
paths = (
{
closed = 1;
nodes = (
"293.742 245.355 OFFCURVE",
"456 251.351 OFFCURVE",
"456 370 CURVE",
"456 486.206 OFFCURVE",
"385.887 514 OFFCURVE",
"285 514 CURVE",
"197.495 514 OFFCURVE",
"165.02 500.113 OFFCURVE",
"113.821 482.134 CURVE",
"129.721 407.051 LINE",
"167.771 421.798 OFFCURVE",
"213.958 426 OFFCURVE",
"267 426 CURVE",
"341.026 426 OFFCURVE",
"380 409.658 OFFCURVE",
"380 371 CURVE",
"380 326.868 OFFCURVE",
"316.912 286.075 OFFCURVE",
"185 299.361 CURVE",
"185 231.915 LINE"
);
}
);
width = 539;
}
);
},
{
glyphname = _D_cyr;
lastChange = "2020-01-18 18:52:38 +0000";
layers = (
{
layerId = "7EBE3D46-E53E-419E-A3EC-596DA2EA1E0D";
name = Regular;
paths = (
{
closed = 1;
nodes = (
"513.802 3 LINE",
"573 3 LINE",
"573 -131 LINE",
"638.986 -131 LINE",
"638.014 78.9158 LINE",
"509.167 78.0843 LINE"
);
}
);
width = 600;
}
);
},
{
glyphname = _k_cyr;
lastChange = "2020-01-18 18:52:38 +0000";
layers = (
{
layerId = "7EBE3D46-E53E-419E-A3EC-596DA2EA1E0D";
name = Regular;
paths = (
{
closed = 1;
nodes = (
"134.522 229.895 LINE",
"239.271 229.077 LINE",
"260.717 259.958 LINE",
"448.949 495 LINE",
"356.481 495 LINE",
"203.608 292.168 LINE",
"150.08 291.212 LINE"
);
}
);
width = 600;
}
);
},
{
glyphname = _d_curl;
lastChange = "2020-01-18 18:52:38 +0000";
layers = (
{
layerId = "7EBE3D46-E53E-419E-A3EC-596DA2EA1E0D";
name = Regular;
paths = (
{
closed = 1;
nodes = (
"238 507.24 LINE",
"175.738 499.92 OFFCURVE",
"147.925 440.066 OFFCURVE",
"110.333 363.007 CURVE",
"127.453 327.585 LINE",
"165.808 399.981 OFFCURVE",
"186.218 418.812 OFFCURVE",
"238 421.582 CURVE"
);
}
);
width = 494;
}
);
},
{
glyphname = _Z;
lastChange = "2020-01-18 18:52:38 +0000";
layers = (
{
layerId = "7EBE3D46-E53E-419E-A3EC-596DA2EA1E0D";
name = Regular;
paths = (
{
closed = 1;
nodes = (
"254.451 134 LINE",
"616 695.762 LINE",
"616 697 LINE",
"550.237 697 LINE",
"245 243.975 LINE",
"245 134 LINE"
);
}
);
width = 661;
}
);
},
{
glyphname = _c;
lastChange = "2020-01-18 18:52:38 +0000";
layers = (
{
layerId = "7EBE3D46-E53E-419E-A3EC-596DA2EA1E0D";
name = Regular;
paths = (
{
closed = 1;
nodes = (
"330.147 565.335 OFFCURVE",
"358.494 553.497 OFFCURVE",
"385.795 538.723 CURVE",
"394.711 604.11 LINE",
"366.745 631.598 OFFCURVE",
"325.644 654.459 OFFCURVE",
"288.174 660.513 CURVE",
"288.837 567.073 LINE"
);
}
);
width = 506;
}
);
},
{
glyphname = _quotes;
lastChange = "2020-01-18 18:52:38 +0000";
layers = (
{
components = (
{
name = _dot;
transform = "{1, 0, 0, 1, 23, -608}";
}
);
layerId = "7EBE3D46-E53E-419E-A3EC-596DA2EA1E0D";
name = Regular;
paths = (
{
closed = 1;
nodes = (
"147.272 -29.524 OFFCURVE",
"150.477 -52.7306 OFFCURVE",
"138.169 -79.994 CURVE",
"164.799 -88.1309 LINE",
"155.142 -85.2452 LINE",
"152.096 -73.4525 OFFCURVE",
"206.452 -24.7435 OFFCURVE",
"214.812 42.5517 CURVE",
"132.745 -9.83205 LINE"
);
}
);
width = 600;
}
);
},
{
glyphname = _yQ;
lastChange = "2020-01-18 18:52:38 +0000";
layers = (
{
layerId = "7EBE3D46-E53E-419E-A3EC-596DA2EA1E0D";
name = Regular;
paths = (
{
closed = 1;
nodes = (
"235.512 -15 LINE",
"223.227 -49.0192 LINE",
"202.574 -105.557 OFFCURVE",
"167.624 -122.507 OFFCURVE",
"127.694 -115.435 CURVE",
"135.805 -198.35 LINE",
"197.738 -203.612 OFFCURVE",
"242.203 -167.363 OFFCURVE",
"270.847 -91.9346 CURVE",
"299.321 -15 LINE"
);
}
);
width = 511;
}
);
},
{
glyphname = _m_cyr;
lastChange = "2020-01-18 18:52:38 +0000";
layers = (
{
layerId = "7EBE3D46-E53E-419E-A3EC-596DA2EA1E0D";
name = Regular;
paths = (
{
closed = 1;
nodes = (
"176.788 497 LINE",
"33 24.9779 LINE",
"33 4 LINE",
"105.967 4 LINE",
"181.967 305 LINE",
"199.665 305 LINE",
"174.454 497 LINE"
);
}
);
width = 682;
}
);
},
{
glyphname = _m_cyr_2;
lastChange = "2020-01-18 18:52:38 +0000";
layers = (
{
layerId = "7EBE3D46-E53E-419E-A3EC-596DA2EA1E0D";
name = Regular;
paths = (
{
closed = 1;
nodes = (
"161.983 398.32 LINE",
"381.936 144 LINE",
"392.912 144 LINE",
"389.094 270 LINE",
"374.163 270 LINE",
"173.163 497 LINE",
"162.97 497 LINE"
);
}
);
width = 682;
}
);
},
{
glyphname = _u_cyr;
lastChange = "2020-01-18 18:52:38 +0000";
layers = (
{
layerId = "7EBE3D46-E53E-419E-A3EC-596DA2EA1E0D";
name = Regular;
paths = (
{
closed = 1;
nodes = (
"93 306.331 OFFCURVE",
"169.074 234 OFFCURVE",
"274 234 CURVE",
"304.029 234 OFFCURVE",
"332.874 240.682 OFFCURVE",
"361.01 249.885 CURVE",
"358.259 320.494 LINE",
"330.626 314.695 OFFCURVE",
"309.261 313.247 OFFCURVE",
"272.382 315.003 CURVE",
"223.468 317.179 OFFCURVE",
"159 341.354 OFFCURVE",
"159 414 CURVE",
"159 482.037 OFFCURVE",
"93 512.817 OFFCURVE",
"93 414 CURVE"
);
}
);
width = 499;
}
);
},
{
glyphname = _curve_cursive;
lastChange = "2020-01-18 18:52:38 +0000";
layers = (
{
layerId = "7EBE3D46-E53E-419E-A3EC-596DA2EA1E0D";
name = Regular;
paths = (
{
closed = 1;
nodes = (
"141 327.214 OFFCURVE",
"73 330.21 OFFCURVE",
"73 255 CURVE",
"73 235 LINE",
"73 99.8733 OFFCURVE",
"163.182 14 OFFCURVE",
"266 14 CURVE",
"318.248 14.8457 OFFCURVE",
"370.12 30.8053 OFFCURVE",
"399.915 65.2417 CURVE",
"388.462 109.965 LINE",
"348.753 95.503 OFFCURVE",
"308.29 94 OFFCURVE",
"276 94 CURVE",
"207.035 94 OFFCURVE",
"141 153.791 OFFCURVE",
"141 244 CURVE",
"141 247 LINE"
);
}
);
width = 537;
}
);
},
{
glyphname = _ending_cursive;
lastChange = "2020-01-18 18:52:38 +0000";
layers = (
{
layerId = "7EBE3D46-E53E-419E-A3EC-596DA2EA1E0D";
name = Regular;
paths = (
{
closed = 1;
nodes = (
"293.038 -2.55772 LINE",
"343.575 0.833626 OFFCURVE",
"382.199 23.716 OFFCURVE",
"415.115 58.5504 CURVE",
"378.268 123.237 LINE",
"353.271 100.9 OFFCURVE",
"324.565 85.5207 OFFCURVE",
"293.976 81.8793 CURVE"
);
}
);
width = 537;
}
);
},
{
glyphname = _z;
lastChange = "2020-01-18 18:52:38 +0000";
layers = (
{
layerId = "7EBE3D46-E53E-419E-A3EC-596DA2EA1E0D";
name = Regular;
paths = (
{
closed = 1;
nodes = (
"424 476 LINE",
"360.734 476 LINE",
"189.214 202.137 LINE",
"175.962 93 LINE",
"182.289 93 LINE",
"424 477.627 LINE"
);
}
);
width = 481;
}
);
},
{
glyphname = _g_two_storey;
lastChange = "2020-01-18 18:52:38 +0000";
layers = (
{
layerId = "7EBE3D46-E53E-419E-A3EC-596DA2EA1E0D";
name = Regular;
paths = (
{
closed = 1;
nodes = (
"257.06 416.261 LINE",
"239.862 519.21 LINE",
"262.548 523 LINE",
"263.032 523 OFFCURVE",
"263.516 523 OFFCURVE",
"264 523 CURVE",
"264 500 LINE",
"137.275 500 OFFCURVE",
"74.9512 422.731 OFFCURVE",
"72.9972 328.938 CURVE",
"73.0022 329.415 OFFCURVE",
"140 330 OFFCURVE",
"140 330 CURVE",
"140 375.516 OFFCURVE",
"176.243 416 OFFCURVE",
"265 416 CURVE",
"267.691 416 OFFCURVE",
"270.382 416 OFFCURVE",
"273.073 416 CURVE"
);
}
);
width = 538;
}
);
},
{
glyphname = _g_loop;
lastChange = "2020-01-18 18:52:38 +0000";
layers = (
{
layerId = "7EBE3D46-E53E-419E-A3EC-596DA2EA1E0D";
name = Regular;
paths = (
{
closed = 1;
nodes = (
"235.029 -78.0552 LINE",
"252.13 -171.876 LINE",
"229.503 -176 LINE",
"229.002 -176 OFFCURVE",
"228.501 -176 OFFCURVE",
"228 -176 CURVE",
"228 -153 LINE",
"347.508 -153 OFFCURVE",
"397.008 -101.751 OFFCURVE",
"399.003 -14.9311 CURVE",
"398.997 -15.4574 LINE",
"398.997 -15.4574 OFFCURVE",
"332 -15 OFFCURVE",
"332 -15 CURVE",
"332 -51.4661 OFFCURVE",
"305.364 -78 OFFCURVE",
"227 -78 CURVE",
"224.314 -78 OFFCURVE",
"221.629 -78 OFFCURVE",
"218.943 -78 CURVE"
);
}
);
width = 538;
}
);
},
{
glyphname = _N;
lastChange = "2020-01-18 18:52:38 +0000";
layers = (
{
layerId = "7EBE3D46-E53E-419E-A3EC-596DA2EA1E0D";
name = Regular;
paths = (
{
closed = 1;
nodes = (
"452 242.437 LINE",
"75.4799 678 LINE",
"83 678 LINE",
"83 488.437 LINE",
"163.719 477.637 LINE",
"452 142.945 LINE"
);
}
);
width = 618;
}
);
},
{
glyphname = _C_lowe;
lastChange = "2020-01-18 18:52:38 +0000";
layers = (
{
layerId = "7EBE3D46-E53E-419E-A3EC-596DA2EA1E0D";
name = Regular;
paths = (
{
closed = 1;
nodes = (
"121 431.595 OFFCURVE",
"53 426.815 OFFCURVE",
"53 298 CURVE",
"53 71.152 OFFCURVE",
"195.618 -2.06373 OFFCURVE",
"306.195 -3 CURVE",
"376.377 -2.14003 OFFCURVE",
"437.463 20.1189 OFFCURVE",
"484.75 58.1373 CURVE",
"447.053 125.363 LINE",
"406.889 97.3218 OFFCURVE",
"358.472 81 OFFCURVE",
"306 81 CURVE",
"232.482 81 OFFCURVE",
"121 126.552 OFFCURVE",
"121 307 CURVE"
);
}
);
width = 492;
}
);
},
{
glyphname = _A;
lastChange = "2020-01-18 18:52:38 +0000";
layers = (
{
layerId = "7EBE3D46-E53E-419E-A3EC-596DA2EA1E0D";
name = Regular;
paths = (
{
closed = 1;
nodes = (
"289.867 706 LINE",
"299.947 706 LINE",
"44.173 23 LINE",
"117.787 23 LINE",
"296.837 524.782 LINE",
"462.624 23 LINE",
"537.209 23 LINE"
);
}
);
width = 590;
}
);
},
{
glyphname = _P;
lastChange = "2020-01-18 18:52:38 +0000";
layers = (
{
layerId = "7EBE3D46-E53E-419E-A3EC-596DA2EA1E0D";
name = Regular;
paths = (
{
closed = 1;
nodes = (
"467 605.69 OFFCURVE",
"376.52 697.179 OFFCURVE",
"250.812 699 CURVE",
"187.934 699.898 OFFCURVE",
"124.622 693.443 OFFCURVE",
"83 687.637 CURVE",
"83 606.071 LINE",
"126.794 617.917 OFFCURVE",
"193.401 624.75 OFFCURVE",
"242.464 622.998 CURVE",
"241.646 623.013 LINE",
"347.522 622.998 OFFCURVE",
"389 543.674 OFFCURVE",
"389 481 CURVE",
"388.049 418.334 OFFCURVE",
"347.576 339 OFFCURVE",
"242 339 CURVE",
"242.821 339.015 LINE",
"193.49 337.253 OFFCURVE",
"126.811 344.084 OFFCURVE",
"83 355.93 CURVE",
"83 294.6 LINE",
"124.588 288.45 OFFCURVE",
"187.779 282.159 OFFCURVE",
"250.693 282.998 CURVE",
"377.722 284.826 OFFCURVE",
"467 357.838 OFFCURVE",
"467 478 CURVE",
"467 479 OFFCURVE",
"467 480 OFFCURVE",
"467 481 CURVE",
"467 484 LINE"
);
}
);
width = 513;
}
);
},
{
glyphname = _x_;
lastChange = "2020-01-18 18:52:38 +0000";
layers = (
{
layerId = "7EBE3D46-E53E-419E-A3EC-596DA2EA1E0D";
name = Regular;
paths = (
{
closed = 1;
nodes = (
"270.822 202 LINE",
"430.857 475 LINE",
"350.696 475 LINE",
"263 313.169 LINE",
"263 202 LINE"
);
},
{
closed = 1;
nodes = (
"378.506 391 OFFCURVE",
"394 406.494 OFFCURVE",
"394 424 CURVE",
"394 441.506 OFFCURVE",
"378.506 457 OFFCURVE",
"361 457 CURVE",
"343.494 457 OFFCURVE",
"328 441.506 OFFCURVE",
"328 424 CURVE",
"328 406.494 OFFCURVE",
"343.494 391 OFFCURVE",
"361 391 CURVE"
);
}
